{
	"patcher" : 	{
		"fileversion" : 1,
		"appversion" : 		{
			"major" : 8,
			"minor" : 2,
			"revision" : 0,
			"architecture" : "x64",
			"modernui" : 1
		}
,
		"classnamespace" : "box",
		"rect" : [ 34.0, 53.0, 652.0, 809.0 ],
		"bglocked" : 0,
		"openinpresentation" : 0,
		"default_fontsize" : 12.0,
		"default_fontface" : 0,
		"default_fontname" : "Arial",
		"gridonopen" : 1,
		"gridsize" : [ 15.0, 15.0 ],
		"gridsnaponopen" : 1,
		"objectsnaponopen" : 1,
		"statusbarvisible" : 2,
		"toolbarvisible" : 1,
		"lefttoolbarpinned" : 0,
		"toptoolbarpinned" : 0,
		"righttoolbarpinned" : 0,
		"bottomtoolbarpinned" : 0,
		"toolbars_unpinned_last_save" : 0,
		"tallnewobj" : 0,
		"boxanimatetime" : 200,
		"enablehscroll" : 1,
		"enablevscroll" : 1,
		"devicewidth" : 0.0,
		"description" : "",
		"digest" : "",
		"tags" : "",
		"style" : "",
		"subpatcher_template" : "",
		"assistshowspatchername" : 0,
		"boxes" : [ 			{
				"box" : 				{
					"id" : "obj-108",
					"maxclass" : "message",
					"numinlets" : 2,
					"numoutlets" : 1,
					"outlettype" : [ "" ],
					"patching_rect" : [ 548.000012874603271, 1098.000039577484131, 172.0, 22.0 ],
					"text" : "chord 60 64 64 64 67 64 71 64"
				}

			}
, 			{
				"box" : 				{
					"id" : "obj-105",
					"maxclass" : "message",
					"numinlets" : 2,
					"numoutlets" : 1,
					"outlettype" : [ "" ],
					"patching_rect" : [ 327.333327770233154, 1132.666669249534607, 36.0, 22.0 ],
					"presentation" : 1,
					"presentation_rect" : [ 67.0, 461.833347201347351, 36.0, 22.0 ],
					"text" : "flush"
				}

			}
, 			{
				"box" : 				{
					"format" : 5,
					"id" : "obj-90",
					"maxclass" : "number",
					"numinlets" : 1,
					"numoutlets" : 2,
					"outlettype" : [ "", "bang" ],
					"parameter_enable" : 0,
					"patching_rect" : [ 299.0, 1098.000039577484131, 50.0, 22.0 ]
				}

			}
, 			{
				"box" : 				{
					"id" : "obj-91",
					"maxclass" : "number",
					"numinlets" : 1,
					"numoutlets" : 2,
					"outlettype" : [ "", "bang" ],
					"parameter_enable" : 0,
					"patching_rect" : [ 468.0, 1098.000039577484131, 26.0, 22.0 ]
				}

			}
, 			{
				"box" : 				{
					"id" : "obj-94",
					"maxclass" : "number",
					"numinlets" : 1,
					"numoutlets" : 2,
					"outlettype" : [ "", "bang" ],
					"parameter_enable" : 0,
					"patching_rect" : [ 415.5, 1098.000039577484131, 50.0, 22.0 ]
				}

			}
, 			{
				"box" : 				{
					"id" : "obj-96",
					"maxclass" : "kslider",
					"numinlets" : 2,
					"numoutlets" : 2,
					"outlettype" : [ "int", "int" ],
					"parameter_enable" : 0,
					"patching_rect" : [ 363.0, 1173.333366632461548, 319.0, 49.0 ],
					"presentation" : 1,
					"presentation_rect" : [ 140.0, 472.333347201347351, 319.0, 49.0 ],
					"range" : 49
				}

			}
, 			{
				"box" : 				{
					"id" : "obj-98",
					"maxclass" : "number",
					"numinlets" : 1,
					"numoutlets" : 2,
					"outlettype" : [ "", "bang" ],
					"parameter_enable" : 0,
					"patching_rect" : [ 363.0, 1098.000039577484131, 50.0, 22.0 ]
				}

			}
, 			{
				"box" : 				{
					"id" : "obj-99",
					"maxclass" : "newobj",
					"numinlets" : 1,
					"numoutlets" : 3,
					"outlettype" : [ "int", "int", "int" ],
					"patching_rect" : [ 363.0, 1036.000039577484131, 124.0, 22.0 ],
					"text" : "notein"
				}

			}
, 			{
				"box" : 				{
					"fontface" : 1,
					"fontsize" : 14.0,
					"id" : "obj-143",
					"linecount" : 6,
					"maxclass" : "comment",
					"numinlets" : 1,
					"numoutlets" : 0,
					"patching_rect" : [ 759.0, 324.0, 236.0, 100.0 ],
					"presentation" : 1,
					"presentation_linecount" : 6,
					"presentation_rect" : [ 1377.91666853427887, 561.747192000000041, 255.333326697349548, 100.0 ],
					"text" : "Detect the sound you play and let the avatar sound play with you\n\nIf you woud like to try out this function, please contact shangyunwu"
				}

			}
, 			{
				"box" : 				{
					"fontface" : 1,
					"fontsize" : 14.0,
					"id" : "obj-138",
					"maxclass" : "comment",
					"numinlets" : 1,
					"numoutlets" : 0,
					"patching_rect" : [ 609.0, 234.0, 168.0, 22.0 ],
					"presentation" : 1,
					"presentation_rect" : [ 857.583332657814026, 419.0, 167.0, 22.0 ],
					"text" : "4"
				}

			}
, 			{
				"box" : 				{
					"id" : "obj-137",
					"maxclass" : "comment",
					"numinlets" : 1,
					"numoutlets" : 0,
					"patching_rect" : [ 964.0, 500.0, 150.0, 20.0 ],
					"presentation" : 1,
					"presentation_linecount" : 2,
					"presentation_rect" : [ 1177.916708827018738, 312.000000000000057, 68.0, 33.0 ],
					"text" : "Otehr Sequence",
					"textcolor" : [ 1.0, 1.0, 1.0, 1.0 ]
				}

			}
, 			{
				"box" : 				{
					"fontface" : 1,
					"fontsize" : 14.0,
					"id" : "obj-136",
					"maxclass" : "comment",
					"numinlets" : 1,
					"numoutlets" : 0,
					"patching_rect" : [ 594.0, 219.0, 168.0, 22.0 ],
					"presentation" : 1,
					"presentation_rect" : [ 857.583332657814026, 43.0, 167.0, 22.0 ],
					"text" : "3"
				}

			}
, 			{
				"box" : 				{
					"fontface" : 1,
					"fontsize" : 14.0,
					"id" : "obj-134",
					"maxclass" : "comment",
					"numinlets" : 1,
					"numoutlets" : 0,
					"patching_rect" : [ 579.0, 204.0, 168.0, 22.0 ],
					"presentation" : 1,
					"presentation_rect" : [ 41.0, 419.0, 167.0, 22.0 ],
					"text" : "2"
				}

			}
, 			{
				"box" : 				{
					"fontface" : 1,
					"fontsize" : 14.0,
					"id" : "obj-133",
					"maxclass" : "comment",
					"numinlets" : 1,
					"numoutlets" : 0,
					"patching_rect" : [ 564.0, 189.0, 168.0, 22.0 ],
					"presentation" : 1,
					"presentation_rect" : [ 41.0, 43.0, 167.0, 22.0 ],
					"text" : "1"
				}

			}
, 			{
				"box" : 				{
					"id" : "obj-125",
					"maxclass" : "comment",
					"numinlets" : 1,
					"numoutlets" : 0,
					"patching_rect" : [ 949.0, 485.0, 150.0, 20.0 ],
					"presentation" : 1,
					"presentation_rect" : [ 1088.916669368743896, 214.747191999999984, 22.0, 20.0 ],
					"text" : "F",
					"textcolor" : [ 1.0, 1.0, 1.0, 1.0 ]
				}

			}
, 			{
				"box" : 				{
					"id" : "obj-124",
					"maxclass" : "comment",
					"numinlets" : 1,
					"numoutlets" : 0,
					"patching_rect" : [ 934.0, 470.0, 150.0, 20.0 ],
					"presentation" : 1,
					"presentation_rect" : [ 1088.916669368743896, 177.0, 22.0, 20.0 ],
					"text" : "C",
					"textcolor" : [ 1.0, 1.0, 1.0, 1.0 ]
				}

			}
, 			{
				"box" : 				{
					"fontface" : 1,
					"fontsize" : 14.0,
					"id" : "obj-114",
					"linecount" : 2,
					"maxclass" : "comment",
					"numinlets" : 1,
					"numoutlets" : 0,
					"patching_rect" : [ 744.0, 309.0, 233.0, 38.0 ],
					"presentation" : 1,
					"presentation_linecount" : 2,
					"presentation_rect" : [ 1377.91666853427887, 241.0, 238.999999284744263, 38.0 ],
					"text" : "Or you cna select the chords you like "
				}

			}
, 			{
				"box" : 				{
					"fontface" : 1,
					"fontsize" : 14.0,
					"id" : "obj-109",
					"linecount" : 4,
					"maxclass" : "comment",
					"numinlets" : 1,
					"numoutlets" : 0,
					"patching_rect" : [ 729.0, 294.0, 231.0, 69.0 ],
					"presentation" : 1,
					"presentation_linecount" : 3,
					"presentation_rect" : [ 552.0, 577.747192000000041, 289.0, 53.0 ],
					"text" : "You can select the part of your audio \n\nthen clich the keys you like"
				}

			}
, 			{
				"box" : 				{
					"fontface" : 1,
					"fontsize" : 14.0,
					"id" : "obj-106",
					"linecount" : 8,
					"maxclass" : "comment",
					"numinlets" : 1,
					"numoutlets" : 0,
					"patching_rect" : [ 714.0, 279.0, 231.0, 132.0 ],
					"presentation" : 1,
					"presentation_linecount" : 7,
					"presentation_rect" : [ 552.0, 193.0, 238.0, 116.0 ],
					"text" : "You can choose to \n1. Record your sounds \n2. Play the around with audio files \n\nRecommand to \n1. Talk \n2. Sing"
				}

			}
, 			{
				"box" : 				{
					"basictuning" : 440,
					"data" : 					{
						"clips" : [ 							{
								"absolutepath" : "Macintosh HD:/Users/wushanggei/Desktop/singingsound.wav",
								"filename" : "singingsound.wav",
								"filekind" : "audiofile",
								"id" : "u032009242",
								"loop" : 0,
								"content_state" : 								{

								}

							}
 ]
					}
,
					"followglobaltempo" : 0,
					"fontname" : "Bangla Sangam MN",
					"formantcorrection" : 0,
					"id" : "obj-61",
					"maxclass" : "playlist~",
					"mode" : "basic",
					"numinlets" : 1,
					"numoutlets" : 5,
					"originallength" : [ 0.0, "ticks" ],
					"originaltempo" : 120.0,
					"outlettype" : [ "signal", "signal", "signal", "", "dictionary" ],
					"parameter_enable" : 0,
					"patching_rect" : [ 297.0, 195.0, 150.0, 30.0 ],
					"pitchcorrection" : 0,
					"presentation" : 1,
					"presentation_rect" : [ 150.0, 156.747191999999984, 334.999999999999943, 30.0 ],
					"quality" : "basic",
					"timestretch" : [ 0 ]
				}

			}
, 			{
				"box" : 				{
					"fontsize" : 18.0,
					"id" : "obj-236",
					"linecount" : 2,
					"maxclass" : "comment",
					"numinlets" : 1,
					"numoutlets" : 0,
					"patching_rect" : [ 1264.916711091995239, 20.666665077209473, 210.0, 67.0 ],
					"text" : "Detection-play together but a little bit delay\n"
				}

			}
, 			{
				"box" : 				{
					"id" : "obj-226",
					"maxclass" : "newobj",
					"numinlets" : 1,
					"numoutlets" : 1,
					"outlettype" : [ "" ],
					"patching_rect" : [ 1445.333380937576294, 332.5, 106.0, 22.0 ],
					"text" : "loadmess target 0"
				}

			}
, 			{
				"box" : 				{
					"id" : "obj-227",
					"maxclass" : "message",
					"numinlets" : 2,
					"numoutlets" : 1,
					"outlettype" : [ "" ],
					"patching_rect" : [ 1386.916711091995239, 233.696737736463547, 67.0, 22.0 ],
					"text" : "window $1"
				}

			}
, 			{
				"box" : 				{
					"id" : "obj-228",
					"maxclass" : "newobj",
					"numinlets" : 2,
					"numoutlets" : 1,
					"outlettype" : [ "float" ],
					"patching_rect" : [ 1386.916711091995239, 180.833326578140259, 31.0, 22.0 ],
					"text" : "!- 0."
				}

			}
, 			{
				"box" : 				{
					"id" : "obj-229",
					"maxclass" : "message",
					"numinlets" : 2,
					"numoutlets" : 1,
					"outlettype" : [ "" ],
					"patching_rect" : [ 1264.916711091995239, 233.696737736463547, 69.0, 22.0 ],
					"text" : "position $1"
				}

			}
, 			{
				"box" : 				{
					"floatoutput" : 1,
					"id" : "obj-230",
					"maxclass" : "rslider",
					"numinlets" : 2,
					"numoutlets" : 2,
					"outlettype" : [ "", "" ],
					"parameter_enable" : 0,
					"patching_rect" : [ 1264.916711091995239, 71.696737736463547, 256.0, 29.0 ],
					"presentation" : 1,
					"presentation_rect" : [ 1030.583376407623291, 625.747194503395122, 256.0, 29.0 ],
					"size" : 1.0
				}

			}
, 			{
				"box" : 				{
					"buffername" : "kbuffer",
					"id" : "obj-231",
					"maxclass" : "waveform~",
					"numinlets" : 5,
					"numoutlets" : 6,
					"outlettype" : [ "float", "float", "float", "float", "list", "" ],
					"patching_rect" : [ 1264.916711091995239, 107.696737736463547, 256.0, 64.0 ],
					"presentation" : 1,
					"presentation_rect" : [ 1030.583376407623291, 661.747194503395122, 256.0, 64.0 ]
				}

			}
, 			{
				"box" : 				{
					"id" : "obj-232",
					"maxclass" : "newobj",
					"numinlets" : 1,
					"numoutlets" : 1,
					"outlettype" : [ "" ],
					"patching_rect" : [ 1325.333380937576294, 332.5, 103.0, 22.0 ],
					"text" : "prepend midinote"
				}

			}
, 			{
				"box" : 				{
					"id" : "obj-233",
					"maxclass" : "newobj",
					"numinlets" : 2,
					"numoutlets" : 1,
					"outlettype" : [ "" ],
					"patching_rect" : [ 1325.333380937576294, 275.833333492279053, 48.0, 22.0 ],
					"text" : "pack i i"
				}

			}
, 			{
				"box" : 				{
					"id" : "obj-234",
					"maxclass" : "ezdac~",
					"numinlets" : 2,
					"numoutlets" : 0,
					"patching_rect" : [ 1321.333380818367004, 521.580456614494324, 45.0, 45.0 ],
					"presentation" : 1,
					"presentation_rect" : [ 879.916667103767395, 620.49999874830246, 119.747124373912811, 119.747124373912811 ]
				}

			}
, 			{
				"box" : 				{
					"id" : "obj-235",
					"maxclass" : "newobj",
					"numinlets" : 2,
					"numoutlets" : 1,
					"outlettype" : [ "signal" ],
					"patching_rect" : [ 1325.333380937576294, 386.5, 187.0, 22.0 ],
					"text" : "poly~ karmapoly 8 @args kbuffer"
				}

			}
, 			{
				"box" : 				{
					"id" : "obj-225",
					"maxclass" : "message",
					"numinlets" : 2,
					"numoutlets" : 1,
					"outlettype" : [ "" ],
					"patching_rect" : [ 1091.333372831344604, 291.975672870874405, 36.0, 22.0 ],
					"text" : "flush"
				}

			}
, 			{
				"box" : 				{
					"id" : "obj-47",
					"maxclass" : "number",
					"numinlets" : 1,
					"numoutlets" : 2,
					"outlettype" : [ "", "bang" ],
					"parameter_enable" : 0,
					"patching_rect" : [ 1039.333372831344604, 162.655089408159256, 50.0, 22.0 ]
				}

			}
, 			{
				"box" : 				{
					"format" : 6,
					"id" : "obj-205",
					"maxclass" : "flonum",
					"numinlets" : 1,
					"numoutlets" : 2,
					"outlettype" : [ "", "bang" ],
					"parameter_enable" : 0,
					"patching_rect" : [ 1091.333372831344604, 162.655089408159256, 50.0, 22.0 ]
				}

			}
, 			{
				"box" : 				{
					"id" : "obj-206",
					"maxclass" : "newobj",
					"numinlets" : 1,
					"numoutlets" : 2,
					"outlettype" : [ "int", "float" ],
					"patching_rect" : [ 1039.333372831344604, 121.607052773237228, 71.0, 22.0 ],
					"text" : "unpack 0 0."
				}

			}
, 			{
				"box" : 				{
					"id" : "obj-207",
					"maxclass" : "newobj",
					"numinlets" : 2,
					"numoutlets" : 2,
					"outlettype" : [ "", "" ],
					"patching_rect" : [ 1039.333372831344604, 84.489147305488586, 69.0, 22.0 ],
					"text" : "route onset"
				}

			}
, 			{
				"box" : 				{
					"id" : "obj-208",
					"maxclass" : "number",
					"numinlets" : 1,
					"numoutlets" : 2,
					"outlettype" : [ "", "bang" ],
					"parameter_enable" : 0,
					"patching_rect" : [ 1105.655207633972168, 485.959767937660217, 50.0, 22.0 ]
				}

			}
, 			{
				"box" : 				{
					"id" : "obj-209",
					"maxclass" : "newobj",
					"numinlets" : 2,
					"numoutlets" : 0,
					"patching_rect" : [ 1105.655207633972168, 544.580456614494324, 49.0, 22.0 ],
					"text" : "pgmout"
				}

			}
, 			{
				"box" : 				{
					"id" : "obj-210",
					"maxclass" : "newobj",
					"numinlets" : 2,
					"numoutlets" : 1,
					"outlettype" : [ "int" ],
					"patching_rect" : [ 1059.103484272956848, 427.91379189491272, 29.5, 22.0 ],
					"text" : "+ 9"
				}

			}
, 			{
				"box" : 				{
					"id" : "obj-211",
					"maxclass" : "newobj",
					"numinlets" : 2,
					"numoutlets" : 1,
					"outlettype" : [ "int" ],
					"patching_rect" : [ 1016.574749350547791, 427.91379189491272, 29.5, 22.0 ],
					"text" : "+ 7"
				}

			}
, 			{
				"box" : 				{
					"id" : "obj-212",
					"maxclass" : "newobj",
					"numinlets" : 2,
					"numoutlets" : 1,
					"outlettype" : [ "int" ],
					"patching_rect" : [ 972.896589159965515, 427.91379189491272, 29.5, 22.0 ],
					"text" : "+ 4"
				}

			}
, 			{
				"box" : 				{
					"id" : "obj-213",
					"maxclass" : "newobj",
					"numinlets" : 1,
					"numoutlets" : 3,
					"outlettype" : [ "", "int", "int" ],
					"patching_rect" : [ 933.833372831344604, 321.591954588890076, 48.0, 22.0 ],
					"text" : "change"
				}

			}
, 			{
				"box" : 				{
					"id" : "obj-214",
					"maxclass" : "number",
					"numinlets" : 1,
					"numoutlets" : 2,
					"outlettype" : [ "", "bang" ],
					"parameter_enable" : 0,
					"patching_rect" : [ 866.574751853942871, 321.591954588890076, 50.0, 22.0 ]
				}

			}
, 			{
				"box" : 				{
					"id" : "obj-215",
					"maxclass" : "newobj",
					"numinlets" : 3,
					"numoutlets" : 2,
					"outlettype" : [ "int", "int" ],
					"patching_rect" : [ 933.833372831344604, 279.063219666481018, 63.0, 22.0 ],
					"text" : "split 0 127"
				}

			}
, 			{
				"box" : 				{
					"id" : "obj-216",
					"maxclass" : "newobj",
					"numinlets" : 3,
					"numoutlets" : 0,
					"patching_rect" : [ 933.833372831344604, 544.580456614494324, 49.0, 22.0 ],
					"text" : "noteout"
				}

			}
, 			{
				"box" : 				{
					"id" : "obj-217",
					"maxclass" : "newobj",
					"numinlets" : 3,
					"numoutlets" : 2,
					"outlettype" : [ "float", "float" ],
					"patching_rect" : [ 933.833372831344604, 495.729882717132568, 115.0, 22.0 ],
					"text" : "makenote 100 1500"
				}

			}
, 			{
				"box" : 				{
					"id" : "obj-218",
					"maxclass" : "kslider",
					"numinlets" : 2,
					"numoutlets" : 2,
					"outlettype" : [ "int", "int" ],
					"parameter_enable" : 0,
					"patching_rect" : [ 933.833372831344604, 355.5, 336.0, 53.0 ],
					"presentation" : 1,
					"presentation_rect" : [ 879.916667103767395, 550.166667103767395, 336.0, 53.0 ]
				}

			}
, 			{
				"box" : 				{
					"id" : "obj-219",
					"maxclass" : "number",
					"numinlets" : 1,
					"numoutlets" : 2,
					"outlettype" : [ "", "bang" ],
					"parameter_enable" : 0,
					"patching_rect" : [ 933.833372831344604, 233.086208939552307, 50.0, 22.0 ]
				}

			}
, 			{
				"box" : 				{
					"id" : "obj-220",
					"maxclass" : "newobj",
					"numinlets" : 1,
					"numoutlets" : 1,
					"outlettype" : [ "" ],
					"patching_rect" : [ 933.833372831344604, 183.086209774017334, 32.0, 22.0 ],
					"text" : "ftom"
				}

			}
, 			{
				"box" : 				{
					"format" : 6,
					"id" : "obj-221",
					"maxclass" : "flonum",
					"numinlets" : 1,
					"numoutlets" : 2,
					"outlettype" : [ "", "bang" ],
					"parameter_enable" : 0,
					"patching_rect" : [ 933.833372831344604, 128.48850953578949, 50.0, 22.0 ]
				}

			}
, 			{
				"box" : 				{
					"fontface" : 0,
					"fontname" : "Arial",
					"fontsize" : 12.0,
					"id" : "obj-222",
					"maxclass" : "number~",
					"mode" : 2,
					"numinlets" : 2,
					"numoutlets" : 2,
					"outlettype" : [ "signal", "float" ],
					"patching_rect" : [ 896.833372831344604, 77.339085102081299, 56.0, 22.0 ],
					"sig" : 0.0
				}

			}
, 			{
				"box" : 				{
					"id" : "obj-223",
					"maxclass" : "ezadc~",
					"numinlets" : 1,
					"numoutlets" : 2,
					"outlettype" : [ "signal", "signal" ],
					"patching_rect" : [ 806.75, 36.0, 45.0, 45.0 ],
					"presentation" : 1,
					"presentation_rect" : [ 879.916667103767395, 484.33333146572113, 45.0, 45.0 ]
				}

			}
, 			{
				"box" : 				{
					"id" : "obj-224",
					"maxclass" : "newobj",
					"numinlets" : 3,
					"numoutlets" : 5,
					"outlettype" : [ "signal", "signal", "signal", "signal", "list" ],
					"patching_rect" : [ 890.416662096977234, 29.5, 209.0, 22.0 ],
					"saved_object_attributes" : 					{
						"notebase" : 0,
						"notelist" : [ 100, 200, 300, 400, 500, 600, 700, 800, 900, 1000, 1100 ],
						"pitchdetection" : 1,
						"retune" : 0,
						"use_16bit" : [ 0 ]
					}
,
					"text" : "retune~ @retune 0 @pitchdetection 1"
				}

			}
, 			{
				"box" : 				{
					"id" : "obj-203",
					"linecount" : 3,
					"maxclass" : "comment",
					"numinlets" : 1,
					"numoutlets" : 0,
					"patching_rect" : [ 1665.666754126548767, 1077.666697859764099, 416.666674613952637, 47.0 ],
					"text" : "choose a random starting location in the table of possible melody notes \n\n(some randiom location that's less than table length pattern length ) "
				}

			}
, 			{
				"box" : 				{
					"id" : "obj-202",
					"maxclass" : "comment",
					"numinlets" : 1,
					"numoutlets" : 0,
					"patching_rect" : [ 1751.000089883804321, 1378.000039577484131, 167.666669845581055, 34.0 ],
					"text" : "check the synth sound\n"
				}

			}
, 			{
				"box" : 				{
					"id" : "obj-201",
					"linecount" : 2,
					"maxclass" : "comment",
					"numinlets" : 1,
					"numoutlets" : 0,
					"patching_rect" : [ 1577.333380937576294, 1384.000039577484131, 61.0, 47.0 ],
					"text" : "midi channel \n"
				}

			}
, 			{
				"box" : 				{
					"id" : "obj-199",
					"linecount" : 3,
					"maxclass" : "comment",
					"numinlets" : 1,
					"numoutlets" : 0,
					"patching_rect" : [ 1589.083349585533142, 1237.000035524368286, 186.000001072883606, 47.0 ],
					"text" : "stop the overlap factor , then trigger the multiplication to set the new note duration "
				}

			}
, 			{
				"box" : 				{
					"id" : "obj-196",
					"linecount" : 4,
					"maxclass" : "comment",
					"numinlets" : 1,
					"numoutlets" : 0,
					"patching_rect" : [ 1589.083349585533142, 1154.333366632461548, 186.000001072883606, 60.0 ],
					"text" : "oeverlap factor can make the note durations greater than or less than the inter-onset interval between notes accurance "
				}

			}
, 			{
				"box" : 				{
					"id" : "obj-195",
					"linecount" : 4,
					"maxclass" : "comment",
					"numinlets" : 1,
					"numoutlets" : 0,
					"patching_rect" : [ 1124.083366751670837, 1199.000033617019653, 61.0, 74.0 ],
					"text" : "table of sorted melody  notes\n"
				}

			}
, 			{
				"box" : 				{
					"id" : "obj-194",
					"linecount" : 4,
					"maxclass" : "comment",
					"numinlets" : 1,
					"numoutlets" : 0,
					"patching_rect" : [ 1379.750041484832764, 1102.666697859764099, 63.0, 74.0 ],
					"text" : "the offset location within the table\n"
				}

			}
, 			{
				"box" : 				{
					"id" : "obj-187",
					"linecount" : 4,
					"maxclass" : "comment",
					"numinlets" : 1,
					"numoutlets" : 0,
					"patching_rect" : [ 1005.083332180976868, 932.333355307579041, 190.0, 74.0 ],
					"text" : "the contents of the table objects are saved as part of the patcher\n(  the Save With Patcher option is chekced in the Get info - dialog ) \n"
				}

			}
, 			{
				"box" : 				{
					"id" : "obj-186",
					"linecount" : 2,
					"maxclass" : "comment",
					"numinlets" : 1,
					"numoutlets" : 0,
					"patching_rect" : [ 1308.750008344650269, 1001.00000274181366, 186.000001072883606, 33.0 ],
					"text" : "step repeatly through a 3-8-note pattern of melody notes"
				}

			}
, 			{
				"box" : 				{
					"id" : "obj-183",
					"linecount" : 3,
					"maxclass" : "comment",
					"numinlets" : 1,
					"numoutlets" : 0,
					"patching_rect" : [ 1308.750008344650269, 889.99999988079071, 186.000001072883606, 47.0 ],
					"text" : "table of velocities, to make  a reapting 16 note pattern of accents, giving a metric effect "
				}

			}
, 			{
				"box" : 				{
					"id" : "obj-182",
					"linecount" : 2,
					"maxclass" : "comment",
					"numinlets" : 1,
					"numoutlets" : 0,
					"patching_rect" : [ 1368.750041604042053, 834.5, 57.99999725818634, 47.0 ],
					"text" : "reset counter\n"
				}

			}
, 			{
				"box" : 				{
					"id" : "obj-180",
					"maxclass" : "comment",
					"numinlets" : 1,
					"numoutlets" : 0,
					"patching_rect" : [ 1655.416716814041138, 703.0, 395.333340644836426, 20.0 ],
					"text" : "make a change of pattern  every x ms"
				}

			}
, 			{
				"box" : 				{
					"id" : "obj-179",
					"linecount" : 2,
					"maxclass" : "comment",
					"numinlets" : 1,
					"numoutlets" : 0,
					"patching_rect" : [ 1013.75, 703.0, 160.666666984558105, 33.0 ],
					"text" : "inter-onset interval between notes(in ms)"
				}

			}
, 			{
				"box" : 				{
					"id" : "obj-178",
					"maxclass" : "comment",
					"numinlets" : 1,
					"numoutlets" : 0,
					"patching_rect" : [ 1239.083371520042419, 655.0, 395.333340644836426, 20.0 ],
					"text" : "starts/stop both metronomes"
				}

			}
, 			{
				"box" : 				{
					"id" : "obj-176",
					"maxclass" : "comment",
					"numinlets" : 1,
					"numoutlets" : 0,
					"patching_rect" : [ 1196.333371520042419, 596.5, 395.333340644836426, 20.0 ],
					"text" : "Minimal loops using a portion of a table"
				}

			}
, 			{
				"box" : 				{
					"format" : 6,
					"id" : "obj-175",
					"maxclass" : "flonum",
					"numinlets" : 1,
					"numoutlets" : 2,
					"outlettype" : [ "", "bang" ],
					"parameter_enable" : 0,
					"patching_rect" : [ 1530.00004768371582, 1173.333366632461548, 50.0, 22.0 ]
				}

			}
, 			{
				"box" : 				{
					"id" : "obj-173",
					"maxclass" : "newobj",
					"numinlets" : 2,
					"numoutlets" : 0,
					"patching_rect" : [ 1669.666754245758057, 1384.000039577484131, 69.0, 22.0 ],
					"text" : "pgmout a 1"
				}

			}
, 			{
				"box" : 				{
					"id" : "obj-172",
					"maxclass" : "number",
					"numinlets" : 1,
					"numoutlets" : 2,
					"outlettype" : [ "", "bang" ],
					"parameter_enable" : 0,
					"patching_rect" : [ 1669.666754245758057, 1322.666704416275024, 50.0, 22.0 ]
				}

			}
, 			{
				"box" : 				{
					"id" : "obj-171",
					"maxclass" : "number",
					"numinlets" : 1,
					"numoutlets" : 2,
					"outlettype" : [ "", "bang" ],
					"parameter_enable" : 0,
					"patching_rect" : [ 1598.666752576828003, 1322.666704416275024, 50.0, 22.0 ]
				}

			}
, 			{
				"box" : 				{
					"id" : "obj-169",
					"maxclass" : "newobj",
					"numinlets" : 3,
					"numoutlets" : 0,
					"patching_rect" : [ 1331.000042200088501, 1384.000039577484131, 69.0, 22.0 ],
					"text" : "noteout a 1"
				}

			}
, 			{
				"box" : 				{
					"id" : "obj-168",
					"maxclass" : "newobj",
					"numinlets" : 3,
					"numoutlets" : 2,
					"outlettype" : [ "float", "float" ],
					"patching_rect" : [ 1331.000042200088501, 1322.666704416275024, 244.499969303607941, 22.0 ],
					"text" : "makenote 127 125"
				}

			}
, 			{
				"box" : 				{
					"id" : "obj-167",
					"maxclass" : "number",
					"numinlets" : 1,
					"numoutlets" : 2,
					"outlettype" : [ "", "bang" ],
					"parameter_enable" : 0,
					"patching_rect" : [ 1200.333371639251709, 1265.333369374275208, 50.0, 22.0 ]
				}

			}
, 			{
				"box" : 				{
					"editor_rect" : [ 100.0, 100.0, 300.0, 300.0 ],
					"embed" : 0,
					"id" : "obj-165",
					"maxclass" : "newobj",
					"numinlets" : 2,
					"numoutlets" : 2,
					"outlettype" : [ "int", "bang" ],
					"patching_rect" : [ 1200.333371639251709, 1218.666701316833496, 35.0, 22.0 ],
					"saved_object_attributes" : 					{
						"embed" : 0,
						"name" : "",
						"parameter_enable" : 0,
						"parameter_mappable" : 0,
						"range" : 128,
						"showeditor" : 0,
						"size" : 128
					}
,
					"showeditor" : 0,
					"text" : "table"
				}

			}
, 			{
				"box" : 				{
					"id" : "obj-164",
					"maxclass" : "newobj",
					"numinlets" : 2,
					"numoutlets" : 1,
					"outlettype" : [ "float" ],
					"patching_rect" : [ 1530.00004768371582, 1254.666702389717102, 45.499963819980621, 22.0 ],
					"text" : "* 1."
				}

			}
, 			{
				"box" : 				{
					"id" : "obj-163",
					"maxclass" : "newobj",
					"numinlets" : 1,
					"numoutlets" : 2,
					"outlettype" : [ "bang", "float" ],
					"patching_rect" : [ 1530.00004768371582, 1218.666701316833496, 45.499963819980621, 22.0 ],
					"text" : "t b f"
				}

			}
, 			{
				"box" : 				{
					"id" : "obj-161",
					"maxclass" : "newobj",
					"numinlets" : 2,
					"numoutlets" : 1,
					"outlettype" : [ "int" ],
					"patching_rect" : [ 1200.333371639251709, 1165.333366394042969, 138.0, 22.0 ],
					"text" : "+"
				}

			}
, 			{
				"box" : 				{
					"id" : "obj-160",
					"maxclass" : "number",
					"numinlets" : 1,
					"numoutlets" : 2,
					"outlettype" : [ "", "bang" ],
					"parameter_enable" : 0,
					"patching_rect" : [ 1319.333371639251709, 1102.666697859764099, 50.0, 22.0 ]
				}

			}
, 			{
				"box" : 				{
					"id" : "obj-158",
					"maxclass" : "newobj",
					"numinlets" : 2,
					"numoutlets" : 1,
					"outlettype" : [ "int" ],
					"patching_rect" : [ 1530.166714489459991, 1093.333364248275757, 126.333335638046265, 22.0 ],
					"text" : "random"
				}

			}
, 			{
				"box" : 				{
					"id" : "obj-157",
					"maxclass" : "number",
					"numinlets" : 1,
					"numoutlets" : 2,
					"outlettype" : [ "", "bang" ],
					"parameter_enable" : 0,
					"patching_rect" : [ 1583.833382308483124, 1050.666696310043335, 50.0, 22.0 ]
				}

			}
, 			{
				"box" : 				{
					"id" : "obj-155",
					"maxclass" : "newobj",
					"numinlets" : 2,
					"numoutlets" : 1,
					"outlettype" : [ "int" ],
					"patching_rect" : [ 1583.833382308483124, 994.666694641113281, 106.50000137090683, 22.0 ],
					"text" : "-"
				}

			}
, 			{
				"box" : 				{
					"id" : "obj-154",
					"maxclass" : "message",
					"numinlets" : 2,
					"numoutlets" : 1,
					"outlettype" : [ "" ],
					"patching_rect" : [ 1583.833382308483124, 861.999999046325684, 32.666667103767395, 22.0 ],
					"text" : "32"
				}

			}
, 			{
				"box" : 				{
					"id" : "obj-152",
					"maxclass" : "number",
					"numinlets" : 1,
					"numoutlets" : 2,
					"outlettype" : [ "", "bang" ],
					"parameter_enable" : 0,
					"patching_rect" : [ 1640.333383679389954, 953.333360075950623, 50.0, 22.0 ]
				}

			}
, 			{
				"box" : 				{
					"id" : "obj-150",
					"maxclass" : "newobj",
					"numinlets" : 2,
					"numoutlets" : 1,
					"outlettype" : [ "int" ],
					"patching_rect" : [ 1640.333383679389954, 902.000000238418579, 29.5, 22.0 ],
					"text" : "+ 2"
				}

			}
, 			{
				"box" : 				{
					"id" : "obj-149",
					"maxclass" : "newobj",
					"numinlets" : 2,
					"numoutlets" : 1,
					"outlettype" : [ "int" ],
					"patching_rect" : [ 1640.333383679389954, 855.000000238418579, 75.333335041999817, 22.0 ],
					"text" : "random 6"
				}

			}
, 			{
				"box" : 				{
					"id" : "obj-145",
					"maxclass" : "newobj",
					"numinlets" : 1,
					"numoutlets" : 3,
					"outlettype" : [ "bang", "bang", "bang" ],
					"patching_rect" : [ 1527.333380937576294, 793.333355307579041, 132.00000274181366, 22.0 ],
					"text" : "b 3"
				}

			}
, 			{
				"box" : 				{
					"id" : "obj-146",
					"maxclass" : "newobj",
					"numinlets" : 2,
					"numoutlets" : 1,
					"outlettype" : [ "bang" ],
					"patching_rect" : [ 1527.333380937576294, 751.0, 69.0, 22.0 ],
					"text" : "metro 8000"
				}

			}
, 			{
				"box" : 				{
					"id" : "obj-147",
					"maxclass" : "number",
					"numinlets" : 1,
					"numoutlets" : 2,
					"outlettype" : [ "", "bang" ],
					"parameter_enable" : 0,
					"patching_rect" : [ 1577.333380937576294, 703.0, 50.0, 22.0 ]
				}

			}
, 			{
				"box" : 				{
					"id" : "obj-148",
					"maxclass" : "toggle",
					"numinlets" : 1,
					"numoutlets" : 1,
					"outlettype" : [ "int" ],
					"parameter_enable" : 0,
					"patching_rect" : [ 1527.333380937576294, 703.0, 24.0, 24.0 ]
				}

			}
, 			{
				"box" : 				{
					"id" : "obj-144",
					"maxclass" : "number",
					"numinlets" : 1,
					"numoutlets" : 2,
					"outlettype" : [ "", "bang" ],
					"parameter_enable" : 0,
					"patching_rect" : [ 1200.333371639251709, 1102.666697859764099, 50.0, 22.0 ]
				}

			}
, 			{
				"box" : 				{
					"id" : "obj-142",
					"maxclass" : "newobj",
					"numinlets" : 5,
					"numoutlets" : 4,
					"outlettype" : [ "int", "", "", "int" ],
					"patching_rect" : [ 1200.333371639251709, 994.666694641113281, 73.500001311302185, 22.0 ],
					"text" : "counter"
				}

			}
, 			{
				"box" : 				{
					"editor_rect" : [ 100.0, 100.0, 300.0, 300.0 ],
					"embed" : 0,
					"id" : "obj-141",
					"maxclass" : "newobj",
					"numinlets" : 2,
					"numoutlets" : 2,
					"outlettype" : [ "int", "bang" ],
					"patching_rect" : [ 1252.000036299228668, 889.99999988079071, 35.0, 22.0 ],
					"saved_object_attributes" : 					{
						"embed" : 0,
						"name" : "",
						"parameter_enable" : 0,
						"parameter_mappable" : 0,
						"range" : 128,
						"showeditor" : 0,
						"size" : 128
					}
,
					"showeditor" : 0,
					"text" : "table"
				}

			}
, 			{
				"box" : 				{
					"id" : "obj-140",
					"maxclass" : "newobj",
					"numinlets" : 5,
					"numoutlets" : 4,
					"outlettype" : [ "int", "", "", "int" ],
					"patching_rect" : [ 1252.000036299228668, 847.0, 97.333335220813751, 22.0 ],
					"text" : "counter 0 15"
				}

			}
, 			{
				"box" : 				{
					"id" : "obj-139",
					"maxclass" : "button",
					"numinlets" : 1,
					"numoutlets" : 1,
					"outlettype" : [ "bang" ],
					"parameter_enable" : 0,
					"patching_rect" : [ 1291.166703909635544, 793.333355307579041, 24.0, 24.0 ]
				}

			}
, 			{
				"box" : 				{
					"id" : "obj-135",
					"maxclass" : "newobj",
					"numinlets" : 1,
					"numoutlets" : 2,
					"outlettype" : [ "bang", "bang" ],
					"patching_rect" : [ 1196.333371520042419, 793.333355307579041, 73.500001311302185, 22.0 ],
					"text" : "b 2"
				}

			}
, 			{
				"box" : 				{
					"id" : "obj-132",
					"maxclass" : "newobj",
					"numinlets" : 2,
					"numoutlets" : 1,
					"outlettype" : [ "bang" ],
					"patching_rect" : [ 1196.333371520042419, 751.0, 63.0, 22.0 ],
					"text" : "metro 125"
				}

			}
, 			{
				"box" : 				{
					"id" : "obj-131",
					"maxclass" : "number",
					"numinlets" : 1,
					"numoutlets" : 2,
					"outlettype" : [ "", "bang" ],
					"parameter_enable" : 0,
					"patching_rect" : [ 1239.083371520042419, 703.0, 50.0, 22.0 ]
				}

			}
, 			{
				"box" : 				{
					"id" : "obj-129",
					"maxclass" : "toggle",
					"numinlets" : 1,
					"numoutlets" : 1,
					"outlettype" : [ "int" ],
					"parameter_enable" : 0,
					"patching_rect" : [ 1196.333371520042419, 703.0, 24.0, 24.0 ]
				}

			}
, 			{
				"box" : 				{
					"id" : "obj-128",
					"maxclass" : "toggle",
					"numinlets" : 1,
					"numoutlets" : 1,
					"outlettype" : [ "int" ],
					"parameter_enable" : 0,
					"patching_rect" : [ 1196.333371520042419, 650.5, 24.0, 24.0 ],
					"presentation" : 1,
					"presentation_rect" : [ 1177.916708827018738, 177.0, 114.666667819023132, 114.666667819023132 ]
				}

			}
, 			{
				"box" : 				{
					"id" : "obj-92",
					"maxclass" : "comment",
					"numinlets" : 1,
					"numoutlets" : 0,
					"patching_rect" : [ 786.416662216186523, 596.5, 150.0, 20.0 ],
					"text" : "Major Ups and Downs "
				}

			}
, 			{
				"box" : 				{
					"id" : "obj-88",
					"maxclass" : "message",
					"numinlets" : 2,
					"numoutlets" : 1,
					"outlettype" : [ "" ],
					"patching_rect" : [ 946.25, 852.333355307579041, 29.5, 22.0 ],
					"presentation" : 1,
					"presentation_rect" : [ 1050.083337068557739, 214.747191999999984, 29.5, 22.0 ],
					"text" : "5"
				}

			}
, 			{
				"box" : 				{
					"id" : "obj-87",
					"maxclass" : "message",
					"numinlets" : 2,
					"numoutlets" : 1,
					"outlettype" : [ "" ],
					"patching_rect" : [ 902.25, 852.333355307579041, 29.5, 22.0 ],
					"presentation" : 1,
					"presentation_rect" : [ 1050.083337068557739, 177.0, 29.5, 22.0 ],
					"text" : "0"
				}

			}
, 			{
				"box" : 				{
					"id" : "obj-85",
					"maxclass" : "newobj",
					"numinlets" : 3,
					"numoutlets" : 0,
					"patching_rect" : [ 797.75, 1074.212383307579103, 59.0, 22.0 ],
					"text" : "noteout 1"
				}

			}
, 			{
				"box" : 				{
					"id" : "obj-83",
					"maxclass" : "newobj",
					"numinlets" : 3,
					"numoutlets" : 2,
					"outlettype" : [ "float", "float" ],
					"patching_rect" : [ 797.75, 1032.833355307579041, 108.0, 22.0 ],
					"text" : "makenote 100 200"
				}

			}
, 			{
				"box" : 				{
					"id" : "obj-81",
					"maxclass" : "number",
					"numinlets" : 1,
					"numoutlets" : 2,
					"outlettype" : [ "", "bang" ],
					"parameter_enable" : 0,
					"patching_rect" : [ 797.75, 996.333355307579041, 50.0, 22.0 ]
				}

			}
, 			{
				"box" : 				{
					"id" : "obj-80",
					"maxclass" : "newobj",
					"numinlets" : 2,
					"numoutlets" : 1,
					"outlettype" : [ "int" ],
					"patching_rect" : [ 797.75, 957.333355307579041, 114.5, 22.0 ],
					"text" : "+"
				}

			}
, 			{
				"box" : 				{
					"id" : "obj-79",
					"maxclass" : "number",
					"numinlets" : 1,
					"numoutlets" : 2,
					"outlettype" : [ "", "bang" ],
					"parameter_enable" : 0,
					"patching_rect" : [ 997.333333373069763, 852.333355307579041, 50.0, 22.0 ]
				}

			}
, 			{
				"box" : 				{
					"id" : "obj-77",
					"maxclass" : "newobj",
					"numinlets" : 2,
					"numoutlets" : 1,
					"outlettype" : [ "int" ],
					"patching_rect" : [ 797.75, 921.333355307579041, 32.0, 22.0 ],
					"text" : "+ 60"
				}

			}
, 			{
				"box" : 				{
					"id" : "obj-76",
					"maxclass" : "number",
					"numinlets" : 1,
					"numoutlets" : 2,
					"outlettype" : [ "", "bang" ],
					"parameter_enable" : 0,
					"patching_rect" : [ 797.75, 876.333355307579041, 50.0, 22.0 ]
				}

			}
, 			{
				"box" : 				{
					"editor_rect" : [ 100.0, 100.0, 300.0, 300.0 ],
					"embed" : 0,
					"id" : "obj-71",
					"maxclass" : "newobj",
					"numinlets" : 2,
					"numoutlets" : 2,
					"outlettype" : [ "int", "bang" ],
					"patching_rect" : [ 797.75, 839.333355307579041, 35.0, 22.0 ],
					"saved_object_attributes" : 					{
						"embed" : 0,
						"name" : "",
						"parameter_enable" : 0,
						"parameter_mappable" : 0,
						"range" : 128,
						"showeditor" : 0,
						"size" : 128
					}
,
					"showeditor" : 0,
					"text" : "table"
				}

			}
, 			{
				"box" : 				{
					"id" : "obj-66",
					"maxclass" : "newobj",
					"numinlets" : 2,
					"numoutlets" : 2,
					"outlettype" : [ "bang", "" ],
					"patching_rect" : [ 866.25, 793.333355307579041, 34.0, 22.0 ],
					"text" : "sel 1"
				}

			}
, 			{
				"box" : 				{
					"id" : "obj-64",
					"maxclass" : "number",
					"numinlets" : 1,
					"numoutlets" : 2,
					"outlettype" : [ "", "bang" ],
					"parameter_enable" : 0,
					"patching_rect" : [ 797.75, 793.333355307579041, 50.0, 22.0 ]
				}

			}
, 			{
				"box" : 				{
					"id" : "obj-63",
					"maxclass" : "newobj",
					"numinlets" : 5,
					"numoutlets" : 4,
					"outlettype" : [ "int", "", "", "int" ],
					"patching_rect" : [ 797.75, 748.833355307579041, 79.0, 22.0 ],
					"text" : "counter 2 0 7"
				}

			}
, 			{
				"box" : 				{
					"id" : "obj-62",
					"maxclass" : "number",
					"numinlets" : 1,
					"numoutlets" : 2,
					"outlettype" : [ "", "bang" ],
					"parameter_enable" : 0,
					"patching_rect" : [ 856.0, 661.333355307579041, 50.0, 22.0 ]
				}

			}
, 			{
				"box" : 				{
					"id" : "obj-60",
					"maxclass" : "newobj",
					"numinlets" : 2,
					"numoutlets" : 1,
					"outlettype" : [ "bang" ],
					"patching_rect" : [ 797.75, 709.333355307579041, 63.0, 22.0 ],
					"text" : "metro 200"
				}

			}
, 			{
				"box" : 				{
					"id" : "obj-59",
					"maxclass" : "toggle",
					"numinlets" : 1,
					"numoutlets" : 1,
					"outlettype" : [ "int" ],
					"parameter_enable" : 0,
					"patching_rect" : [ 797.75, 661.333355307579041, 24.0, 24.0 ],
					"presentation" : 1,
					"presentation_rect" : [ 909.916664838790894, 177.0, 114.666667819023132, 114.666667819023132 ]
				}

			}
, 			{
				"box" : 				{
					"basictuning" : 440,
					"data" : 					{
						"clips" : [ 							{
								"absolutepath" : "Macintosh HD:/Users/wushanggei/Desktop/Her Archive/Voice/Ai-ahyeah.wav",
								"filename" : "Ai-ahyeah.wav",
								"filekind" : "audiofile",
								"id" : "u839006231",
								"loop" : 0,
								"content_state" : 								{

								}

							}
 ]
					}
,
					"followglobaltempo" : 0,
					"formantcorrection" : 0,
					"id" : "obj-58",
					"maxclass" : "playlist~",
					"mode" : "basic",
					"numinlets" : 1,
					"numoutlets" : 5,
					"originallength" : [ 0.0, "ticks" ],
					"originaltempo" : 120.0,
					"outlettype" : [ "signal", "signal", "signal", "", "dictionary" ],
					"parameter_enable" : 0,
					"patching_rect" : [ 594.0, 303.0, 150.0, 30.0 ],
					"pitchcorrection" : 0,
					"quality" : "basic",
					"timestretch" : [ 0 ]
				}

			}
, 			{
				"box" : 				{
					"basictuning" : 440,
					"data" : 					{
						"clips" : [ 							{
								"absolutepath" : "Macintosh HD:/Users/wushanggei/Desktop/Her Archive/Voice/AI-Oh.wav",
								"filename" : "AI-Oh.wav",
								"filekind" : "audiofile",
								"id" : "u139006099",
								"loop" : 0,
								"content_state" : 								{

								}

							}
 ]
					}
,
					"followglobaltempo" : 0,
					"formantcorrection" : 0,
					"id" : "obj-50",
					"maxclass" : "playlist~",
					"mode" : "basic",
					"numinlets" : 1,
					"numoutlets" : 5,
					"originallength" : [ 0.0, "ticks" ],
					"originaltempo" : 120.0,
					"outlettype" : [ "signal", "signal", "signal", "", "dictionary" ],
					"parameter_enable" : 0,
					"patching_rect" : [ 594.0, 225.5, 150.0, 30.0 ],
					"pitchcorrection" : 0,
					"quality" : "basic",
					"timestretch" : [ 0 ]
				}

			}
, 			{
				"box" : 				{
					"basictuning" : 440,
					"data" : 					{
						"clips" : [ 							{
								"absolutepath" : "Macintosh HD:/Users/wushanggei/Desktop/Her Archive/Voice/AI-Ah.wav",
								"filename" : "AI-Ah.wav",
								"filekind" : "audiofile",
								"id" : "u617005933",
								"loop" : 0,
								"content_state" : 								{

								}

							}
 ]
					}
,
					"followglobaltempo" : 0,
					"formantcorrection" : 0,
					"id" : "obj-48",
					"maxclass" : "playlist~",
					"mode" : "basic",
					"numinlets" : 1,
					"numoutlets" : 5,
					"originallength" : [ 0.0, "ticks" ],
					"originaltempo" : 120.0,
					"outlettype" : [ "signal", "signal", "signal", "", "dictionary" ],
					"parameter_enable" : 0,
					"patching_rect" : [ 594.0, 262.5, 150.0, 30.0 ],
					"pitchcorrection" : 0,
					"quality" : "basic",
					"timestretch" : [ 0 ]
				}

			}
, 			{
				"box" : 				{
					"id" : "obj-122",
					"maxclass" : "newobj",
					"numinlets" : 3,
					"numoutlets" : 0,
					"patching_rect" : [ 2054.666690587997437, 495.729882717132568, 118.0, 22.0 ],
					"text" : "noteout"
				}

			}
, 			{
				"box" : 				{
					"id" : "obj-121",
					"maxclass" : "newobj",
					"numinlets" : 4,
					"numoutlets" : 3,
					"outlettype" : [ "float", "float", "float" ],
					"patching_rect" : [ 2054.666690587997437, 455.088586717132557, 118.0, 22.0 ],
					"text" : "makenote 100 100 1"
				}

			}
, 			{
				"box" : 				{
					"id" : "obj-120",
					"maxclass" : "number",
					"numinlets" : 1,
					"numoutlets" : 2,
					"outlettype" : [ "", "bang" ],
					"parameter_enable" : 0,
					"patching_rect" : [ 2054.666690587997437, 400.729882717132568, 50.0, 22.0 ]
				}

			}
, 			{
				"box" : 				{
					"id" : "obj-118",
					"maxclass" : "message",
					"numinlets" : 2,
					"numoutlets" : 1,
					"outlettype" : [ "" ],
					"patching_rect" : [ 2161.166690587997437, 337.729882717132568, 29.5, 22.0 ],
					"text" : "38"
				}

			}
, 			{
				"box" : 				{
					"id" : "obj-117",
					"maxclass" : "message",
					"numinlets" : 2,
					"numoutlets" : 1,
					"outlettype" : [ "" ],
					"patching_rect" : [ 2125.166690587997437, 337.729882717132568, 29.5, 22.0 ],
					"text" : "36"
				}

			}
, 			{
				"box" : 				{
					"id" : "obj-116",
					"maxclass" : "message",
					"numinlets" : 2,
					"numoutlets" : 1,
					"outlettype" : [ "" ],
					"patching_rect" : [ 2089.500095087997579, 337.729882717132568, 29.5, 22.0 ],
					"text" : "34"
				}

			}
, 			{
				"box" : 				{
					"id" : "obj-115",
					"maxclass" : "message",
					"numinlets" : 2,
					"numoutlets" : 1,
					"outlettype" : [ "" ],
					"patching_rect" : [ 2054.666690587997437, 337.729882717132568, 29.5, 22.0 ],
					"text" : "32"
				}

			}
, 			{
				"box" : 				{
					"id" : "obj-113",
					"maxclass" : "button",
					"numinlets" : 1,
					"numoutlets" : 1,
					"outlettype" : [ "bang" ],
					"parameter_enable" : 0,
					"patching_rect" : [ 2148.666690587997437, 288.729882717132568, 24.0, 24.0 ]
				}

			}
, 			{
				"box" : 				{
					"id" : "obj-112",
					"maxclass" : "button",
					"numinlets" : 1,
					"numoutlets" : 1,
					"outlettype" : [ "bang" ],
					"parameter_enable" : 0,
					"patching_rect" : [ 2115.666690587997437, 288.729882717132568, 24.0, 24.0 ]
				}

			}
, 			{
				"box" : 				{
					"id" : "obj-111",
					"maxclass" : "button",
					"numinlets" : 1,
					"numoutlets" : 1,
					"outlettype" : [ "bang" ],
					"parameter_enable" : 0,
					"patching_rect" : [ 2084.666690587997437, 288.729882717132568, 24.0, 24.0 ]
				}

			}
, 			{
				"box" : 				{
					"id" : "obj-110",
					"maxclass" : "button",
					"numinlets" : 1,
					"numoutlets" : 1,
					"outlettype" : [ "bang" ],
					"parameter_enable" : 0,
					"patching_rect" : [ 2054.666690587997437, 288.729882717132568, 24.0, 24.0 ]
				}

			}
, 			{
				"box" : 				{
					"id" : "obj-101",
					"maxclass" : "newobj",
					"numinlets" : 5,
					"numoutlets" : 5,
					"outlettype" : [ "bang", "bang", "bang", "bang", "" ],
					"patching_rect" : [ 2054.666690587997437, 243.729882717132568, 124.0, 22.0 ],
					"text" : "sel 1 2 3 4"
				}

			}
, 			{
				"box" : 				{
					"id" : "obj-102",
					"maxclass" : "number",
					"numinlets" : 1,
					"numoutlets" : 2,
					"outlettype" : [ "", "bang" ],
					"parameter_enable" : 0,
					"patching_rect" : [ 1962.666690587997437, 243.729882717132568, 50.0, 22.0 ]
				}

			}
, 			{
				"box" : 				{
					"id" : "obj-103",
					"maxclass" : "newobj",
					"numinlets" : 5,
					"numoutlets" : 4,
					"outlettype" : [ "int", "", "", "int" ],
					"patching_rect" : [ 1962.666690587997437, 178.729882717132568, 69.0, 22.0 ],
					"text" : "counter 4 1"
				}

			}
, 			{
				"box" : 				{
					"id" : "obj-95",
					"maxclass" : "newobj",
					"numinlets" : 2,
					"numoutlets" : 1,
					"outlettype" : [ "bang" ],
					"patching_rect" : [ 1962.666690587997437, 130.350854717132506, 63.0, 22.0 ],
					"text" : "metro 200"
				}

			}
, 			{
				"box" : 				{
					"id" : "obj-97",
					"maxclass" : "toggle",
					"numinlets" : 1,
					"numoutlets" : 1,
					"outlettype" : [ "int" ],
					"parameter_enable" : 0,
					"patching_rect" : [ 1962.666690587997437, 83.350854717132506, 24.0, 24.0 ]
				}

			}
, 			{
				"box" : 				{
					"fontsize" : 18.0,
					"id" : "obj-93",
					"maxclass" : "comment",
					"numinlets" : 1,
					"numoutlets" : 0,
					"patching_rect" : [ 1941.666690587997437, 42.229882717132568, 301.0, 27.0 ],
					"text" : "Melody Sequence ( not yet finish ) "
				}

			}
, 			{
				"box" : 				{
					"id" : "obj-84",
					"maxclass" : "newobj",
					"numinlets" : 1,
					"numoutlets" : 2,
					"outlettype" : [ "dictionary", "" ],
					"patching_rect" : [ 594.0, 131.0, 45.0, 22.0 ],
					"text" : "maxurl"
				}

			}
, 			{
				"box" : 				{
					"fontsize" : 18.0,
					"id" : "obj-73",
					"maxclass" : "comment",
					"numinlets" : 1,
					"numoutlets" : 0,
					"patching_rect" : [ 297.0, 100.0, 210.0, 27.0 ],
					"text" : "MUSIC VERSION"
				}

			}
, 			{
				"box" : 				{
					"fontsize" : 18.0,
					"id" : "obj-44",
					"maxclass" : "comment",
					"numinlets" : 1,
					"numoutlets" : 0,
					"patching_rect" : [ 46.0, 100.0, 210.0, 27.0 ],
					"text" : "RECORDED VERSION"
				}

			}
, 			{
				"box" : 				{
					"fontsize" : 18.0,
					"id" : "obj-65",
					"maxclass" : "comment",
					"numinlets" : 1,
					"numoutlets" : 0,
					"patching_rect" : [ 46.0, 59.0, 426.055480999999986, 27.0 ],
					"text" : "voice and tone in speech for music research"
				}

			}
, 			{
				"box" : 				{
					"fontsize" : 24.0,
					"id" : "obj-43",
					"maxclass" : "comment",
					"numinlets" : 1,
					"numoutlets" : 0,
					"patching_rect" : [ 46.0, 24.0, 627.0, 33.0 ],
					"text" : "ROBOTIC TO HUMAN VOICE SYNTH "
				}

			}
, 			{
				"box" : 				{
					"id" : "obj-56",
					"maxclass" : "newobj",
					"numinlets" : 3,
					"numoutlets" : 0,
					"patching_rect" : [ 1615.916691184043884, 519.879028000000062, 59.0, 22.0 ],
					"text" : "noteout 1"
				}

			}
, 			{
				"box" : 				{
					"id" : "obj-55",
					"maxclass" : "newobj",
					"numinlets" : 3,
					"numoutlets" : 2,
					"outlettype" : [ "float", "float" ],
					"patching_rect" : [ 1615.916691184043884, 475.358703999999989, 108.0, 22.0 ],
					"text" : "makenote 127 200"
				}

			}
, 			{
				"box" : 				{
					"id" : "obj-46",
					"maxclass" : "newobj",
					"numinlets" : 2,
					"numoutlets" : 1,
					"outlettype" : [ "int" ],
					"patching_rect" : [ 1615.916691184043884, 437.5, 29.5, 22.0 ],
					"text" : "+"
				}

			}
, 			{
				"box" : 				{
					"id" : "obj-45",
					"maxclass" : "number",
					"numinlets" : 1,
					"numoutlets" : 2,
					"outlettype" : [ "", "bang" ],
					"parameter_enable" : 0,
					"patching_rect" : [ 1615.666691184043884, 399.5, 50.0, 22.0 ]
				}

			}
, 			{
				"box" : 				{
					"id" : "obj-37",
					"maxclass" : "message",
					"numinlets" : 2,
					"numoutlets" : 1,
					"outlettype" : [ "" ],
					"patching_rect" : [ 1879.416691184043884, 354.5, 29.5, 22.0 ],
					"text" : "52"
				}

			}
, 			{
				"box" : 				{
					"id" : "obj-35",
					"maxclass" : "message",
					"numinlets" : 2,
					"numoutlets" : 1,
					"outlettype" : [ "" ],
					"patching_rect" : [ 1836.416691184043884, 354.5, 29.5, 22.0 ],
					"text" : "55"
				}

			}
, 			{
				"box" : 				{
					"id" : "obj-34",
					"maxclass" : "message",
					"numinlets" : 2,
					"numoutlets" : 1,
					"outlettype" : [ "" ],
					"patching_rect" : [ 1798.416691184043884, 354.5, 29.5, 22.0 ],
					"text" : "57"
				}

			}
, 			{
				"box" : 				{
					"id" : "obj-31",
					"maxclass" : "message",
					"numinlets" : 2,
					"numoutlets" : 1,
					"outlettype" : [ "" ],
					"patching_rect" : [ 1758.416691184043884, 354.5, 29.5, 22.0 ],
					"text" : "58"
				}

			}
, 			{
				"box" : 				{
					"id" : "obj-6",
					"maxclass" : "message",
					"numinlets" : 2,
					"numoutlets" : 1,
					"outlettype" : [ "" ],
					"patching_rect" : [ 1723.416691184043884, 354.5, 29.5, 22.0 ],
					"text" : "57"
				}

			}
, 			{
				"box" : 				{
					"id" : "obj-8",
					"maxclass" : "message",
					"numinlets" : 2,
					"numoutlets" : 1,
					"outlettype" : [ "" ],
					"patching_rect" : [ 1687.416691184043884, 354.5, 29.5, 22.0 ],
					"text" : "55"
				}

			}
, 			{
				"box" : 				{
					"id" : "obj-10",
					"maxclass" : "message",
					"numinlets" : 2,
					"numoutlets" : 1,
					"outlettype" : [ "" ],
					"patching_rect" : [ 1651.916691184043884, 354.5, 29.5, 22.0 ],
					"text" : "52"
				}

			}
, 			{
				"box" : 				{
					"id" : "obj-25",
					"maxclass" : "message",
					"numinlets" : 2,
					"numoutlets" : 1,
					"outlettype" : [ "" ],
					"patching_rect" : [ 1618.916691184043884, 354.5, 29.5, 22.0 ],
					"text" : "48"
				}

			}
, 			{
				"box" : 				{
					"id" : "obj-13",
					"maxclass" : "newobj",
					"numinlets" : 9,
					"numoutlets" : 9,
					"outlettype" : [ "bang", "bang", "bang", "bang", "bang", "bang", "bang", "bang", "" ],
					"patching_rect" : [ 1619.666691184043884, 309.5, 153.0, 22.0 ],
					"text" : "select 1 4 7 10 13 16 19 22"
				}

			}
, 			{
				"box" : 				{
					"id" : "obj-18",
					"maxclass" : "number",
					"numinlets" : 1,
					"numoutlets" : 2,
					"outlettype" : [ "", "bang" ],
					"parameter_enable" : 0,
					"patching_rect" : [ 1619.666691184043884, 257.5, 50.0, 22.0 ]
				}

			}
, 			{
				"box" : 				{
					"id" : "obj-20",
					"maxclass" : "newobj",
					"numinlets" : 5,
					"numoutlets" : 4,
					"outlettype" : [ "int", "", "", "int" ],
					"patching_rect" : [ 1619.666691184043884, 212.5, 75.0, 22.0 ],
					"text" : "counter 1 24"
				}

			}
, 			{
				"box" : 				{
					"id" : "obj-28",
					"maxclass" : "button",
					"numinlets" : 1,
					"numoutlets" : 1,
					"outlettype" : [ "bang" ],
					"parameter_enable" : 0,
					"patching_rect" : [ 1619.666691184043884, 167.5, 24.0, 24.0 ]
				}

			}
, 			{
				"box" : 				{
					"id" : "obj-39",
					"maxclass" : "newobj",
					"numinlets" : 2,
					"numoutlets" : 1,
					"outlettype" : [ "bang" ],
					"patching_rect" : [ 1619.666691184043884, 132.0, 63.0, 22.0 ],
					"text" : "metro 100"
				}

			}
, 			{
				"box" : 				{
					"id" : "obj-40",
					"maxclass" : "number",
					"numinlets" : 1,
					"numoutlets" : 2,
					"outlettype" : [ "", "bang" ],
					"parameter_enable" : 0,
					"patching_rect" : [ 1663.666691184043884, 85.0, 50.0, 22.0 ]
				}

			}
, 			{
				"box" : 				{
					"id" : "obj-41",
					"maxclass" : "toggle",
					"numinlets" : 1,
					"numoutlets" : 1,
					"outlettype" : [ "int" ],
					"parameter_enable" : 0,
					"patching_rect" : [ 1619.666691184043884, 85.0, 24.0, 24.0 ]
				}

			}
, 			{
				"box" : 				{
					"fontsize" : 18.0,
					"id" : "obj-74",
					"maxclass" : "comment",
					"numinlets" : 1,
					"numoutlets" : 0,
					"patching_rect" : [ 1619.666691184043884, 36.0, 210.0, 27.0 ],
					"text" : "Melody Design 1"
				}

			}
, 			{
				"box" : 				{
					"basictuning" : 440,
					"data" : 					{
						"clips" : [ 							{
								"absolutepath" : "Macintosh HD:/Users/wushanggei/Desktop/Her Archive/Ai-voice.wav",
								"filename" : "Ai-voice.wav",
								"filekind" : "audiofile",
								"id" : "u113004295",
								"loop" : 0,
								"content_state" : 								{

								}

							}
 ]
					}
,
					"followglobaltempo" : 0,
					"fontname" : "Bangla Sangam MN",
					"formantcorrection" : 0,
					"id" : "obj-67",
					"maxclass" : "playlist~",
					"mode" : "basic",
					"numinlets" : 1,
					"numoutlets" : 5,
					"originallength" : [ 0.0, "ticks" ],
					"originaltempo" : 120.0,
					"outlettype" : [ "signal", "signal", "signal", "", "dictionary" ],
					"parameter_enable" : 0,
					"patching_rect" : [ 297.0, 147.0, 150.0, 30.0 ],
					"pitchcorrection" : 0,
					"presentation" : 1,
					"presentation_rect" : [ 150.0, 112.0, 334.999999999999943, 30.0 ],
					"quality" : "basic",
					"timestretch" : [ 0 ]
				}

			}
, 			{
				"box" : 				{
					"basictuning" : 440,
					"data" : 					{
						"clips" : [ 							{
								"absolutepath" : "Macintosh HD:/Users/wushanggei/Desktop/Her Archive/Music/Herachive - I am shangavatar - demo.wav",
								"filename" : "Herachive - I am shangavatar - demo.wav",
								"filekind" : "audiofile",
								"id" : "u320004209",
								"loop" : 0,
								"content_state" : 								{

								}

							}
 ]
					}
,
					"followglobaltempo" : 0,
					"formantcorrection" : 0,
					"id" : "obj-69",
					"maxclass" : "playlist~",
					"mode" : "basic",
					"numinlets" : 1,
					"numoutlets" : 5,
					"originallength" : [ 0.0, "ticks" ],
					"originaltempo" : 120.0,
					"outlettype" : [ "signal", "signal", "signal", "", "dictionary" ],
					"parameter_enable" : 0,
					"patching_rect" : [ 594.0, 346.0, 150.0, 30.0 ],
					"pitchcorrection" : 0,
					"quality" : "basic",
					"timestretch" : [ 0 ]
				}

			}
, 			{
				"box" : 				{
					"id" : "obj-30",
					"maxclass" : "newobj",
					"numinlets" : 1,
					"numoutlets" : 1,
					"outlettype" : [ "" ],
					"patching_rect" : [ 167.0, 695.0, 106.0, 22.0 ],
					"text" : "loadmess target 0"
				}

			}
, 			{
				"box" : 				{
					"id" : "obj-29",
					"maxclass" : "message",
					"numinlets" : 2,
					"numoutlets" : 1,
					"outlettype" : [ "" ],
					"patching_rect" : [ 509.0, 810.0, 67.0, 22.0 ],
					"text" : "window $1"
				}

			}
, 			{
				"box" : 				{
					"id" : "obj-27",
					"maxclass" : "newobj",
					"numinlets" : 2,
					"numoutlets" : 1,
					"outlettype" : [ "float" ],
					"patching_rect" : [ 509.0, 770.0, 31.0, 22.0 ],
					"text" : "!- 0."
				}

			}
, 			{
				"box" : 				{
					"id" : "obj-26",
					"maxclass" : "message",
					"numinlets" : 2,
					"numoutlets" : 1,
					"outlettype" : [ "" ],
					"patching_rect" : [ 387.0, 810.0, 69.0, 22.0 ],
					"text" : "position $1"
				}

			}
, 			{
				"box" : 				{
					"floatoutput" : 1,
					"id" : "obj-24",
					"maxclass" : "rslider",
					"numinlets" : 2,
					"numoutlets" : 2,
					"outlettype" : [ "", "" ],
					"parameter_enable" : 0,
					"patching_rect" : [ 387.0, 648.0, 256.0, 29.0 ],
					"presentation" : 1,
					"presentation_rect" : [ 67.0, 617.0, 256.0, 29.0 ],
					"size" : 1.0
				}

			}
, 			{
				"box" : 				{
					"buffername" : "kbuffer",
					"id" : "obj-23",
					"maxclass" : "waveform~",
					"numinlets" : 5,
					"numoutlets" : 6,
					"outlettype" : [ "float", "float", "float", "float", "list", "" ],
					"patching_rect" : [ 387.0, 684.0, 256.0, 64.0 ],
					"presentation" : 1,
					"presentation_rect" : [ 67.0, 653.0, 256.0, 64.0 ]
				}

			}
, 			{
				"box" : 				{
					"id" : "obj-22",
					"maxclass" : "newobj",
					"numinlets" : 1,
					"numoutlets" : 1,
					"outlettype" : [ "" ],
					"patching_rect" : [ 47.0, 695.0, 103.0, 22.0 ],
					"text" : "prepend midinote"
				}

			}
, 			{
				"box" : 				{
					"id" : "obj-21",
					"maxclass" : "newobj",
					"numinlets" : 2,
					"numoutlets" : 1,
					"outlettype" : [ "" ],
					"patching_rect" : [ 47.0, 655.0, 48.0, 22.0 ],
					"text" : "pack i i"
				}

			}
, 			{
				"box" : 				{
					"id" : "obj-19",
					"maxclass" : "message",
					"numinlets" : 2,
					"numoutlets" : 1,
					"outlettype" : [ "" ],
					"patching_rect" : [ 47.0, 541.0, 36.0, 22.0 ],
					"presentation" : 1,
					"presentation_rect" : [ 67.0, 489.0, 36.0, 22.0 ],
					"text" : "flush"
				}

			}
, 			{
				"box" : 				{
					"id" : "obj-17",
					"maxclass" : "kslider",
					"mode" : 1,
					"numinlets" : 2,
					"numoutlets" : 2,
					"outlettype" : [ "int", "int" ],
					"parameter_enable" : 0,
					"patching_rect" : [ 47.0, 580.0, 336.0, 53.0 ],
					"presentation" : 1,
					"presentation_rect" : [ 67.0, 532.0, 392.0, 60.0 ]
				}

			}
, 			{
				"box" : 				{
					"id" : "obj-16",
					"maxclass" : "ezdac~",
					"numinlets" : 2,
					"numoutlets" : 0,
					"patching_rect" : [ 47.0, 815.0, 45.0, 45.0 ],
					"presentation" : 1,
					"presentation_rect" : [ 367.0, 617.0, 100.0, 100.0 ]
				}

			}
, 			{
				"box" : 				{
					"id" : "obj-15",
					"maxclass" : "newobj",
					"numinlets" : 2,
					"numoutlets" : 1,
					"outlettype" : [ "signal" ],
					"patching_rect" : [ 47.0, 749.0, 187.0, 22.0 ],
					"text" : "poly~ karmapoly 8 @args kbuffer"
				}

			}
, 			{
				"box" : 				{
					"format" : 6,
					"id" : "obj-14",
					"maxclass" : "flonum",
					"numinlets" : 1,
					"numoutlets" : 2,
					"outlettype" : [ "", "bang" ],
					"parameter_enable" : 0,
					"patching_rect" : [ 185.0, 147.0, 50.0, 22.0 ]
				}

			}
, 			{
				"box" : 				{
					"id" : "obj-11",
					"maxclass" : "message",
					"numinlets" : 2,
					"numoutlets" : 1,
					"outlettype" : [ "" ],
					"patching_rect" : [ 51.0, 203.0, 34.0, 22.0 ],
					"presentation" : 1,
					"presentation_rect" : [ 67.0, 249.0, 34.0, 22.0 ],
					"text" : "stop"
				}

			}
, 			{
				"box" : 				{
					"id" : "obj-9",
					"maxclass" : "message",
					"numinlets" : 2,
					"numoutlets" : 1,
					"outlettype" : [ "" ],
					"patching_rect" : [ 51.0, 173.0, 34.0, 22.0 ],
					"presentation" : 1,
					"presentation_rect" : [ 67.0, 212.747191999999984, 34.0, 22.0 ],
					"text" : "play"
				}

			}
, 			{
				"box" : 				{
					"id" : "obj-7",
					"maxclass" : "message",
					"numinlets" : 2,
					"numoutlets" : 1,
					"outlettype" : [ "" ],
					"patching_rect" : [ 51.0, 147.0, 46.0, 22.0 ],
					"presentation" : 1,
					"presentation_rect" : [ 67.0, 177.0, 46.0, 22.0 ],
					"text" : "record"
				}

			}
, 			{
				"box" : 				{
					"fontname" : "Arial",
					"fontsize" : 12.0,
					"format" : 6,
					"id" : "obj-54",
					"maxclass" : "flonum",
					"numinlets" : 1,
					"numoutlets" : 2,
					"outlettype" : [ "", "bang" ],
					"parameter_enable" : 0,
					"patching_rect" : [ 459.611328000000015, 362.879028000000005, 51.0, 22.0 ],
					"presentation" : 1,
					"presentation_rect" : [ 433.999999999999943, 214.747191999999984, 51.0, 22.0 ]
				}

			}
, 			{
				"box" : 				{
					"fontname" : "Arial",
					"fontsize" : 12.0,
					"format" : 6,
					"id" : "obj-53",
					"maxclass" : "flonum",
					"numinlets" : 1,
					"numoutlets" : 2,
					"outlettype" : [ "", "bang" ],
					"parameter_enable" : 0,
					"patching_rect" : [ 404.889098999999987, 362.879028000000005, 51.0, 22.0 ],
					"presentation" : 1,
					"presentation_rect" : [ 373.889098999999987, 214.747191999999984, 51.0, 22.0 ]
				}

			}
, 			{
				"box" : 				{
					"fontname" : "Arial",
					"fontsize" : 12.0,
					"format" : 6,
					"id" : "obj-52",
					"maxclass" : "flonum",
					"numinlets" : 1,
					"numoutlets" : 2,
					"outlettype" : [ "", "bang" ],
					"parameter_enable" : 0,
					"patching_rect" : [ 350.166809000000001, 362.879028000000005, 51.0, 22.0 ],
					"presentation" : 1,
					"presentation_rect" : [ 311.166809000000001, 214.747191999999984, 51.0, 22.0 ]
				}

			}
, 			{
				"box" : 				{
					"fontname" : "Arial",
					"fontsize" : 12.0,
					"format" : 6,
					"id" : "obj-51",
					"maxclass" : "flonum",
					"numinlets" : 1,
					"numoutlets" : 2,
					"outlettype" : [ "", "bang" ],
					"parameter_enable" : 0,
					"patching_rect" : [ 186.0, 362.879028000000005, 51.0, 22.0 ],
					"presentation" : 1,
					"presentation_rect" : [ 150.0, 214.747191999999984, 51.0, 22.0 ]
				}

			}
, 			{
				"box" : 				{
					"bgcolor" : [ 1.0, 1.0, 1.0, 1.0 ],
					"bgoncolor" : [ 0.662639, 0.263952, 0.677225, 1.0 ],
					"id" : "obj-36",
					"ignoreclick" : 1,
					"legacytextcolor" : 1,
					"maxclass" : "textbutton",
					"mode" : 1,
					"numinlets" : 1,
					"numoutlets" : 3,
					"outlettype" : [ "", "", "int" ],
					"parameter_enable" : 0,
					"patching_rect" : [ 295.444519000000014, 362.879028000000005, 35.0, 20.0 ],
					"presentation" : 1,
					"presentation_rect" : [ 261.444519000000014, 214.747191999999984, 38.555480999999986, 22.0 ],
					"text" : "rec",
					"textcolor" : [ 0.15, 0.15, 0.15, 1.0 ],
					"texton" : "rec",
					"textoncolor" : [ 1.0, 1.0, 1.0, 1.0 ],
					"textovercolor" : [ 0.1, 0.1, 0.1, 1.0 ],
					"usebgoncolor" : 1,
					"usetextovercolor" : 1
				}

			}
, 			{
				"box" : 				{
					"bgcolor" : [ 1.0, 1.0, 1.0, 1.0 ],
					"bgoncolor" : [ 0.662639, 0.263952, 0.677225, 1.0 ],
					"id" : "obj-33",
					"ignoreclick" : 1,
					"legacytextcolor" : 1,
					"maxclass" : "textbutton",
					"mode" : 1,
					"numinlets" : 1,
					"numoutlets" : 3,
					"outlettype" : [ "", "", "int" ],
					"parameter_enable" : 0,
					"patching_rect" : [ 240.722259000000008, 362.879028000000005, 35.0, 20.0 ],
					"presentation" : 1,
					"presentation_rect" : [ 210.722259000000008, 214.747191999999984, 38.0, 22.0 ],
					"text" : "play",
					"textcolor" : [ 0.15, 0.15, 0.15, 1.0 ],
					"texton" : "play",
					"textoncolor" : [ 1.0, 1.0, 1.0, 1.0 ],
					"textovercolor" : [ 0.1, 0.1, 0.1, 1.0 ],
					"usebgoncolor" : 1,
					"usetextovercolor" : 1
				}

			}
, 			{
				"box" : 				{
					"bgcolor" : [ 1.0, 1.0, 1.0, 0.0 ],
					"bordercolor" : [ 0.501961, 0.501961, 0.501961, 0.0 ],
					"fgcolor" : [ 0.501961, 0.501961, 0.501961, 0.4 ],
					"floatoutput" : 1,
					"id" : "obj-38",
					"maxclass" : "rslider",
					"numinlets" : 2,
					"numoutlets" : 2,
					"outlettype" : [ "", "" ],
					"parameter_enable" : 0,
					"patching_rect" : [ 186.0, 399.131836000000021, 338.0, 118.375 ],
					"presentation" : 1,
					"presentation_rect" : [ 150.0, 249.0, 338.0, 114.0 ],
					"size" : 1.0
				}

			}
, 			{
				"box" : 				{
					"bgcolor" : [ 1.0, 1.0, 1.0, 0.0 ],
					"bordercolor" : [ 0.501961, 0.501961, 0.501961, 0.0 ],
					"fgcolor" : [ 0.501961, 0.501961, 0.501961, 0.4 ],
					"floatoutput" : 1,
					"id" : "obj-42",
					"maxclass" : "rslider",
					"numinlets" : 2,
					"numoutlets" : 2,
					"outlettype" : [ "", "" ],
					"parameter_enable" : 0,
					"patching_rect" : [ 187.0, 397.131836000000021, 338.0, 118.375 ],
					"presentation" : 1,
					"presentation_rect" : [ 150.0, 244.624999999999943, 338.0, 118.375 ],
					"size" : 1.0
				}

			}
, 			{
				"box" : 				{
					"fontname" : "Arial",
					"fontsize" : 12.0,
					"id" : "obj-12",
					"maxclass" : "newobj",
					"numinlets" : 1,
					"numoutlets" : 6,
					"outlettype" : [ "float", "int", "int", "float", "float", "float" ],
					"patching_rect" : [ 186.0, 332.858703999999989, 293.611328000000015, 22.0 ],
					"text" : "unpack f i i f f f"
				}

			}
, 			{
				"box" : 				{
					"attr_bpm" : 133.990004999999996,
					"bgcolor" : [ 0.0, 0.0, 0.0, 1.0 ],
					"buffername" : "kbuffer",
					"grid" : 0.0,
					"gridcolor" : [ 0.219607843137255, 0.905882352941176, 0.545098039215686, 1.0 ],
					"id" : "obj-72",
					"ignoreclick" : 1,
					"labels" : 0,
					"maxclass" : "waveform~",
					"numinlets" : 5,
					"numoutlets" : 6,
					"outlettype" : [ "float", "float", "float", "float", "list", "" ],
					"patching_rect" : [ 187.0, 399.131836000000021, 334.0, 114.0 ],
					"presentation" : 1,
					"presentation_rect" : [ 150.0, 249.0, 334.0, 114.0 ],
					"ruler" : 0,
					"selectioncolor" : [ 0.741176, 0.184314, 0.756863, 0.0 ],
					"vticks" : 0,
					"waveformcolor" : [ 0.0, 0.847058823529412, 0.768627450980392, 1.0 ]
				}

			}
, 			{
				"box" : 				{
					"id" : "obj-5",
					"maxclass" : "newobj",
					"numinlets" : 1,
					"numoutlets" : 1,
					"outlettype" : [ "signal" ],
					"patching_rect" : [ 185.0, 185.0, 44.0, 22.0 ],
					"text" : "sig~ 1"
				}

			}
, 			{
				"box" : 				{
					"id" : "obj-4",
					"maxclass" : "ezdac~",
					"numinlets" : 2,
					"numoutlets" : 0,
					"patching_rect" : [ 113.0, 378.5, 46.0, 46.0 ],
					"presentation" : 1,
					"presentation_rect" : [ 67.0, 292.0, 73.0, 73.0 ]
				}

			}
, 			{
				"box" : 				{
					"id" : "obj-3",
					"maxclass" : "ezadc~",
					"numinlets" : 1,
					"numoutlets" : 2,
					"outlettype" : [ "signal", "signal" ],
					"patching_rect" : [ 113.0, 147.0, 46.0, 46.0 ],
					"presentation" : 1,
					"presentation_rect" : [ 67.0, 112.0, 46.0, 46.0 ]
				}

			}
, 			{
				"box" : 				{
					"id" : "obj-2",
					"maxclass" : "newobj",
					"numinlets" : 2,
					"numoutlets" : 2,
					"outlettype" : [ "signal", "list" ],
					"patching_rect" : [ 113.0, 272.0, 92.0, 22.0 ],
					"text" : "karma~ kbuffer"
				}

			}
, 			{
				"box" : 				{
					"id" : "obj-1",
					"maxclass" : "newobj",
					"numinlets" : 1,
					"numoutlets" : 2,
					"outlettype" : [ "float", "bang" ],
					"patching_rect" : [ 594.0, 173.0, 119.0, 22.0 ],
					"text" : "buffer~ kbuffer 5000"
				}

			}
, 			{
				"box" : 				{
					"angle" : 270.0,
					"grad1" : [ 0.329411764705882, 0.870588235294118, 0.686274509803922, 1.0 ],
					"grad2" : [ 0.050980392156863, 0.592156862745098, 1.0, 0.33 ],
					"id" : "obj-104",
					"maxclass" : "panel",
					"mode" : 1,
					"numinlets" : 1,
					"numoutlets" : 0,
					"patching_rect" : [ 34.5, 1086.333366632461548, 128.0, 128.0 ],
					"presentation" : 1,
					"presentation_rect" : [ 41.0, 84.747191999999984, 486.0, 308.0 ],
					"proportion" : 0.752525252525253
				}

			}
, 			{
				"box" : 				{
					"angle" : 270.0,
					"grad1" : [ 0.329411764705882, 0.607843137254902, 0.850980392156863, 0.32 ],
					"grad2" : [ 1.0, 0.898039215686275, 0.0, 1.0 ],
					"id" : "obj-107",
					"maxclass" : "panel",
					"mode" : 1,
					"numinlets" : 1,
					"numoutlets" : 0,
					"patching_rect" : [ 49.5, 1101.333366632461548, 128.0, 128.0 ],
					"presentation" : 1,
					"presentation_rect" : [ 37.722259500000007, 450.247192000000041, 486.0, 308.0 ],
					"proportion" : 0.752525252525253
				}

			}
, 			{
				"box" : 				{
					"angle" : 270.0,
					"grad1" : [ 0.968627450980392, 0.980392156862745, 0.294117647058824, 0.34 ],
					"grad2" : [ 0.670588235294118, 0.0, 1.0, 1.0 ],
					"id" : "obj-119",
					"maxclass" : "panel",
					"mode" : 1,
					"numinlets" : 1,
					"numoutlets" : 0,
					"patching_rect" : [ 49.5, 1101.333366632461548, 128.0, 128.0 ],
					"presentation" : 1,
					"presentation_rect" : [ 857.583332657814026, 82.74716923102568, 484.666673421859741, 303.25283076897432 ],
					"proportion" : 0.752525252525253
				}

			}
, 			{
				"box" : 				{
					"angle" : 270.0,
					"grad1" : [ 0.27843137254902, 0.796078431372549, 0.458823529411765, 0.24 ],
					"grad2" : [ 0.925490196078431, 0.117647058823529, 0.490196078431373, 1.0 ],
					"id" : "obj-151",
					"maxclass" : "panel",
					"mode" : 1,
					"numinlets" : 1,
					"numoutlets" : 0,
					"patching_rect" : [ 64.5, 1116.333366632461548, 128.0, 128.0 ],
					"presentation" : 1,
					"presentation_rect" : [ 857.583332657814026, 457.747192000000041, 488.666673541069031, 308.0 ],
					"proportion" : 0.752525252525253
				}

			}
 ],
		"lines" : [ 			{
				"patchline" : 				{
					"destination" : [ "obj-45", 0 ],
					"source" : [ "obj-10", 0 ]
				}

			}
, 			{
				"patchline" : 				{
					"destination" : [ "obj-110", 0 ],
					"source" : [ "obj-101", 0 ]
				}

			}
, 			{
				"patchline" : 				{
					"destination" : [ "obj-111", 0 ],
					"source" : [ "obj-101", 1 ]
				}

			}
, 			{
				"patchline" : 				{
					"destination" : [ "obj-112", 0 ],
					"source" : [ "obj-101", 2 ]
				}

			}
, 			{
				"patchline" : 				{
					"destination" : [ "obj-113", 0 ],
					"source" : [ "obj-101", 3 ]
				}

			}
, 			{
				"patchline" : 				{
					"destination" : [ "obj-101", 0 ],
					"order" : 0,
					"source" : [ "obj-103", 0 ]
				}

			}
, 			{
				"patchline" : 				{
					"destination" : [ "obj-102", 0 ],
					"order" : 1,
					"source" : [ "obj-103", 0 ]
				}

			}
, 			{
				"patchline" : 				{
					"destination" : [ "obj-96", 0 ],
					"source" : [ "obj-105", 0 ]
				}

			}
, 			{
				"patchline" : 				{
					"destination" : [ "obj-96", 0 ],
					"source" : [ "obj-108", 0 ]
				}

			}
, 			{
				"patchline" : 				{
					"destination" : [ "obj-2", 0 ],
					"source" : [ "obj-11", 0 ]
				}

			}
, 			{
				"patchline" : 				{
					"destination" : [ "obj-115", 0 ],
					"source" : [ "obj-110", 0 ]
				}

			}
, 			{
				"patchline" : 				{
					"destination" : [ "obj-116", 0 ],
					"source" : [ "obj-111", 0 ]
				}

			}
, 			{
				"patchline" : 				{
					"destination" : [ "obj-117", 0 ],
					"source" : [ "obj-112", 0 ]
				}

			}
, 			{
				"patchline" : 				{
					"destination" : [ "obj-118", 0 ],
					"source" : [ "obj-113", 0 ]
				}

			}
, 			{
				"patchline" : 				{
					"destination" : [ "obj-120", 0 ],
					"source" : [ "obj-115", 0 ]
				}

			}
, 			{
				"patchline" : 				{
					"destination" : [ "obj-120", 0 ],
					"source" : [ "obj-116", 0 ]
				}

			}
, 			{
				"patchline" : 				{
					"destination" : [ "obj-120", 0 ],
					"source" : [ "obj-117", 0 ]
				}

			}
, 			{
				"patchline" : 				{
					"destination" : [ "obj-120", 0 ],
					"source" : [ "obj-118", 0 ]
				}

			}
, 			{
				"patchline" : 				{
					"destination" : [ "obj-33", 0 ],
					"source" : [ "obj-12", 1 ]
				}

			}
, 			{
				"patchline" : 				{
					"destination" : [ "obj-36", 0 ],
					"source" : [ "obj-12", 2 ]
				}

			}
, 			{
				"patchline" : 				{
					"destination" : [ "obj-51", 0 ],
					"source" : [ "obj-12", 0 ]
				}

			}
, 			{
				"patchline" : 				{
					"destination" : [ "obj-52", 0 ],
					"source" : [ "obj-12", 3 ]
				}

			}
, 			{
				"patchline" : 				{
					"destination" : [ "obj-53", 0 ],
					"source" : [ "obj-12", 4 ]
				}

			}
, 			{
				"patchline" : 				{
					"destination" : [ "obj-54", 0 ],
					"source" : [ "obj-12", 5 ]
				}

			}
, 			{
				"patchline" : 				{
					"destination" : [ "obj-121", 0 ],
					"source" : [ "obj-120", 0 ]
				}

			}
, 			{
				"patchline" : 				{
					"destination" : [ "obj-122", 2 ],
					"source" : [ "obj-121", 2 ]
				}

			}
, 			{
				"patchline" : 				{
					"destination" : [ "obj-122", 1 ],
					"source" : [ "obj-121", 1 ]
				}

			}
, 			{
				"patchline" : 				{
					"destination" : [ "obj-122", 0 ],
					"order" : 0,
					"source" : [ "obj-121", 0 ]
				}

			}
, 			{
				"patchline" : 				{
					"destination" : [ "obj-17", 0 ],
					"midpoints" : [ 2064.166690587997437, 590.33333694934845, 1241.0, 590.33333694934845, 1241.0, 591.000000715255737, 56.5, 591.000000715255737 ],
					"order" : 1,
					"source" : [ "obj-121", 0 ]
				}

			}
, 			{
				"patchline" : 				{
					"destination" : [ "obj-129", 0 ],
					"order" : 1,
					"source" : [ "obj-128", 0 ]
				}

			}
, 			{
				"patchline" : 				{
					"destination" : [ "obj-148", 0 ],
					"order" : 0,
					"source" : [ "obj-128", 0 ]
				}

			}
, 			{
				"patchline" : 				{
					"destination" : [ "obj-132", 0 ],
					"source" : [ "obj-129", 0 ]
				}

			}
, 			{
				"patchline" : 				{
					"destination" : [ "obj-10", 0 ],
					"source" : [ "obj-13", 1 ]
				}

			}
, 			{
				"patchline" : 				{
					"destination" : [ "obj-25", 0 ],
					"source" : [ "obj-13", 0 ]
				}

			}
, 			{
				"patchline" : 				{
					"destination" : [ "obj-31", 0 ],
					"source" : [ "obj-13", 4 ]
				}

			}
, 			{
				"patchline" : 				{
					"destination" : [ "obj-34", 0 ],
					"source" : [ "obj-13", 5 ]
				}

			}
, 			{
				"patchline" : 				{
					"destination" : [ "obj-35", 0 ],
					"source" : [ "obj-13", 6 ]
				}

			}
, 			{
				"patchline" : 				{
					"destination" : [ "obj-37", 0 ],
					"source" : [ "obj-13", 7 ]
				}

			}
, 			{
				"patchline" : 				{
					"destination" : [ "obj-6", 0 ],
					"source" : [ "obj-13", 3 ]
				}

			}
, 			{
				"patchline" : 				{
					"destination" : [ "obj-8", 0 ],
					"source" : [ "obj-13", 2 ]
				}

			}
, 			{
				"patchline" : 				{
					"destination" : [ "obj-132", 1 ],
					"order" : 1,
					"source" : [ "obj-131", 0 ]
				}

			}
, 			{
				"patchline" : 				{
					"destination" : [ "obj-164", 0 ],
					"midpoints" : [ 1248.583371520042419, 737.0, 1498.666708469390869, 737.0, 1498.666708469390869, 1250.0, 1539.50004768371582, 1250.0 ],
					"order" : 0,
					"source" : [ "obj-131", 0 ]
				}

			}
, 			{
				"patchline" : 				{
					"destination" : [ "obj-135", 0 ],
					"source" : [ "obj-132", 0 ]
				}

			}
, 			{
				"patchline" : 				{
					"destination" : [ "obj-140", 0 ],
					"source" : [ "obj-135", 1 ]
				}

			}
, 			{
				"patchline" : 				{
					"destination" : [ "obj-142", 0 ],
					"source" : [ "obj-135", 0 ]
				}

			}
, 			{
				"patchline" : 				{
					"destination" : [ "obj-140", 2 ],
					"source" : [ "obj-139", 0 ]
				}

			}
, 			{
				"patchline" : 				{
					"destination" : [ "obj-5", 0 ],
					"source" : [ "obj-14", 0 ]
				}

			}
, 			{
				"patchline" : 				{
					"destination" : [ "obj-141", 0 ],
					"source" : [ "obj-140", 0 ]
				}

			}
, 			{
				"patchline" : 				{
					"destination" : [ "obj-168", 1 ],
					"midpoints" : [ 1261.500036299228668, 926.0, 1302.333371520042419, 926.0, 1302.333371520042419, 1178.0, 1344.333371520042419, 1178.0, 1344.333371520042419, 1307.0, 1453.250026851892471, 1307.0 ],
					"source" : [ "obj-141", 0 ]
				}

			}
, 			{
				"patchline" : 				{
					"destination" : [ "obj-144", 0 ],
					"source" : [ "obj-142", 0 ]
				}

			}
, 			{
				"patchline" : 				{
					"destination" : [ "obj-161", 0 ],
					"source" : [ "obj-144", 0 ]
				}

			}
, 			{
				"patchline" : 				{
					"destination" : [ "obj-149", 0 ],
					"source" : [ "obj-145", 2 ]
				}

			}
, 			{
				"patchline" : 				{
					"destination" : [ "obj-154", 0 ],
					"source" : [ "obj-145", 1 ]
				}

			}
, 			{
				"patchline" : 				{
					"destination" : [ "obj-158", 0 ],
					"source" : [ "obj-145", 0 ]
				}

			}
, 			{
				"patchline" : 				{
					"destination" : [ "obj-145", 0 ],
					"source" : [ "obj-146", 0 ]
				}

			}
, 			{
				"patchline" : 				{
					"destination" : [ "obj-146", 1 ],
					"source" : [ "obj-147", 0 ]
				}

			}
, 			{
				"patchline" : 				{
					"destination" : [ "obj-146", 0 ],
					"source" : [ "obj-148", 0 ]
				}

			}
, 			{
				"patchline" : 				{
					"destination" : [ "obj-150", 0 ],
					"source" : [ "obj-149", 0 ]
				}

			}
, 			{
				"patchline" : 				{
					"destination" : [ "obj-16", 1 ],
					"order" : 0,
					"source" : [ "obj-15", 0 ]
				}

			}
, 			{
				"patchline" : 				{
					"destination" : [ "obj-16", 0 ],
					"order" : 1,
					"source" : [ "obj-15", 0 ]
				}

			}
, 			{
				"patchline" : 				{
					"destination" : [ "obj-152", 0 ],
					"source" : [ "obj-150", 0 ]
				}

			}
, 			{
				"patchline" : 				{
					"destination" : [ "obj-142", 4 ],
					"order" : 1,
					"source" : [ "obj-152", 0 ]
				}

			}
, 			{
				"patchline" : 				{
					"destination" : [ "obj-155", 1 ],
					"order" : 0,
					"source" : [ "obj-152", 0 ]
				}

			}
, 			{
				"patchline" : 				{
					"destination" : [ "obj-155", 0 ],
					"source" : [ "obj-154", 0 ]
				}

			}
, 			{
				"patchline" : 				{
					"destination" : [ "obj-157", 0 ],
					"source" : [ "obj-155", 0 ]
				}

			}
, 			{
				"patchline" : 				{
					"destination" : [ "obj-158", 1 ],
					"source" : [ "obj-157", 0 ]
				}

			}
, 			{
				"patchline" : 				{
					"destination" : [ "obj-160", 0 ],
					"source" : [ "obj-158", 0 ]
				}

			}
, 			{
				"patchline" : 				{
					"destination" : [ "obj-161", 1 ],
					"source" : [ "obj-160", 0 ]
				}

			}
, 			{
				"patchline" : 				{
					"destination" : [ "obj-165", 0 ],
					"source" : [ "obj-161", 0 ]
				}

			}
, 			{
				"patchline" : 				{
					"destination" : [ "obj-164", 1 ],
					"source" : [ "obj-163", 1 ]
				}

			}
, 			{
				"patchline" : 				{
					"destination" : [ "obj-164", 0 ],
					"source" : [ "obj-163", 0 ]
				}

			}
, 			{
				"patchline" : 				{
					"destination" : [ "obj-168", 2 ],
					"source" : [ "obj-164", 0 ]
				}

			}
, 			{
				"patchline" : 				{
					"destination" : [ "obj-167", 0 ],
					"source" : [ "obj-165", 0 ]
				}

			}
, 			{
				"patchline" : 				{
					"destination" : [ "obj-168", 0 ],
					"source" : [ "obj-167", 0 ]
				}

			}
, 			{
				"patchline" : 				{
					"destination" : [ "obj-169", 2 ],
					"order" : 0,
					"source" : [ "obj-168", 1 ]
				}

			}
, 			{
				"patchline" : 				{
					"destination" : [ "obj-169", 1 ],
					"order" : 1,
					"source" : [ "obj-168", 1 ]
				}

			}
, 			{
				"patchline" : 				{
					"destination" : [ "obj-169", 0 ],
					"order" : 0,
					"source" : [ "obj-168", 0 ]
				}

			}
, 			{
				"patchline" : 				{
					"destination" : [ "obj-17", 0 ],
					"midpoints" : [ 1340.500042200088501, 1354.666704416275024, 698.50002110004425, 1354.666704416275024, 698.50002110004425, 569.0, 56.5, 569.0 ],
					"order" : 1,
					"source" : [ "obj-168", 0 ]
				}

			}
, 			{
				"patchline" : 				{
					"destination" : [ "obj-21", 1 ],
					"midpoints" : [ 373.5, 651.0, 85.5, 651.0 ],
					"source" : [ "obj-17", 1 ]
				}

			}
, 			{
				"patchline" : 				{
					"destination" : [ "obj-21", 0 ],
					"source" : [ "obj-17", 0 ]
				}

			}
, 			{
				"patchline" : 				{
					"destination" : [ "obj-169", 2 ],
					"order" : 1,
					"source" : [ "obj-171", 0 ]
				}

			}
, 			{
				"patchline" : 				{
					"destination" : [ "obj-169", 1 ],
					"order" : 2,
					"source" : [ "obj-171", 0 ]
				}

			}
, 			{
				"patchline" : 				{
					"destination" : [ "obj-173", 1 ],
					"order" : 0,
					"source" : [ "obj-171", 0 ]
				}

			}
, 			{
				"patchline" : 				{
					"destination" : [ "obj-173", 0 ],
					"source" : [ "obj-172", 0 ]
				}

			}
, 			{
				"patchline" : 				{
					"destination" : [ "obj-163", 0 ],
					"source" : [ "obj-175", 0 ]
				}

			}
, 			{
				"patchline" : 				{
					"destination" : [ "obj-13", 0 ],
					"source" : [ "obj-18", 0 ]
				}

			}
, 			{
				"patchline" : 				{
					"destination" : [ "obj-17", 0 ],
					"source" : [ "obj-19", 0 ]
				}

			}
, 			{
				"patchline" : 				{
					"destination" : [ "obj-12", 0 ],
					"source" : [ "obj-2", 1 ]
				}

			}
, 			{
				"patchline" : 				{
					"destination" : [ "obj-4", 1 ],
					"order" : 0,
					"source" : [ "obj-2", 0 ]
				}

			}
, 			{
				"patchline" : 				{
					"destination" : [ "obj-4", 0 ],
					"order" : 1,
					"source" : [ "obj-2", 0 ]
				}

			}
, 			{
				"patchline" : 				{
					"destination" : [ "obj-18", 0 ],
					"source" : [ "obj-20", 0 ]
				}

			}
, 			{
				"patchline" : 				{
					"destination" : [ "obj-205", 0 ],
					"source" : [ "obj-206", 1 ]
				}

			}
, 			{
				"patchline" : 				{
					"destination" : [ "obj-47", 0 ],
					"source" : [ "obj-206", 0 ]
				}

			}
, 			{
				"patchline" : 				{
					"destination" : [ "obj-206", 0 ],
					"source" : [ "obj-207", 0 ]
				}

			}
, 			{
				"patchline" : 				{
					"destination" : [ "obj-209", 0 ],
					"source" : [ "obj-208", 0 ]
				}

			}
, 			{
				"patchline" : 				{
					"destination" : [ "obj-22", 0 ],
					"source" : [ "obj-21", 0 ]
				}

			}
, 			{
				"patchline" : 				{
					"destination" : [ "obj-217", 0 ],
					"source" : [ "obj-210", 0 ]
				}

			}
, 			{
				"patchline" : 				{
					"destination" : [ "obj-217", 0 ],
					"source" : [ "obj-211", 0 ]
				}

			}
, 			{
				"patchline" : 				{
					"destination" : [ "obj-217", 0 ],
					"source" : [ "obj-212", 0 ]
				}

			}
, 			{
				"patchline" : 				{
					"destination" : [ "obj-218", 0 ],
					"source" : [ "obj-213", 0 ]
				}

			}
, 			{
				"patchline" : 				{
					"destination" : [ "obj-213", 0 ],
					"order" : 0,
					"source" : [ "obj-215", 0 ]
				}

			}
, 			{
				"patchline" : 				{
					"destination" : [ "obj-214", 0 ],
					"order" : 1,
					"source" : [ "obj-215", 0 ]
				}

			}
, 			{
				"patchline" : 				{
					"destination" : [ "obj-216", 1 ],
					"order" : 1,
					"source" : [ "obj-217", 1 ]
				}

			}
, 			{
				"patchline" : 				{
					"destination" : [ "obj-216", 0 ],
					"order" : 1,
					"source" : [ "obj-217", 0 ]
				}

			}
, 			{
				"patchline" : 				{
					"destination" : [ "obj-233", 1 ],
					"order" : 0,
					"source" : [ "obj-217", 1 ]
				}

			}
, 			{
				"patchline" : 				{
					"destination" : [ "obj-233", 0 ],
					"order" : 0,
					"source" : [ "obj-217", 0 ]
				}

			}
, 			{
				"patchline" : 				{
					"destination" : [ "obj-210", 0 ],
					"order" : 0,
					"source" : [ "obj-218", 0 ]
				}

			}
, 			{
				"patchline" : 				{
					"destination" : [ "obj-211", 0 ],
					"order" : 1,
					"source" : [ "obj-218", 0 ]
				}

			}
, 			{
				"patchline" : 				{
					"destination" : [ "obj-212", 0 ],
					"order" : 2,
					"source" : [ "obj-218", 0 ]
				}

			}
, 			{
				"patchline" : 				{
					"destination" : [ "obj-217", 0 ],
					"order" : 3,
					"source" : [ "obj-218", 0 ]
				}

			}
, 			{
				"patchline" : 				{
					"destination" : [ "obj-215", 0 ],
					"source" : [ "obj-219", 0 ]
				}

			}
, 			{
				"patchline" : 				{
					"destination" : [ "obj-15", 0 ],
					"source" : [ "obj-22", 0 ]
				}

			}
, 			{
				"patchline" : 				{
					"destination" : [ "obj-219", 0 ],
					"source" : [ "obj-220", 0 ]
				}

			}
, 			{
				"patchline" : 				{
					"destination" : [ "obj-220", 0 ],
					"source" : [ "obj-221", 0 ]
				}

			}
, 			{
				"patchline" : 				{
					"destination" : [ "obj-221", 0 ],
					"source" : [ "obj-222", 1 ]
				}

			}
, 			{
				"patchline" : 				{
					"destination" : [ "obj-207", 0 ],
					"source" : [ "obj-224", 4 ]
				}

			}
, 			{
				"patchline" : 				{
					"destination" : [ "obj-222", 0 ],
					"source" : [ "obj-224", 1 ]
				}

			}
, 			{
				"patchline" : 				{
					"destination" : [ "obj-218", 0 ],
					"source" : [ "obj-225", 0 ]
				}

			}
, 			{
				"patchline" : 				{
					"destination" : [ "obj-235", 0 ],
					"midpoints" : [ 1454.833380937576294, 372.5, 1334.833380937576294, 372.5 ],
					"source" : [ "obj-226", 0 ]
				}

			}
, 			{
				"patchline" : 				{
					"destination" : [ "obj-235", 1 ],
					"midpoints" : [ 1396.416711091995239, 479.5, 1535.833380937576294, 479.5, 1535.833380937576294, 375.5, 1502.833380937576294, 375.5 ],
					"source" : [ "obj-227", 0 ]
				}

			}
, 			{
				"patchline" : 				{
					"destination" : [ "obj-227", 0 ],
					"source" : [ "obj-228", 0 ]
				}

			}
, 			{
				"patchline" : 				{
					"destination" : [ "obj-235", 1 ],
					"midpoints" : [ 1274.416711091995239, 479.5, 1535.833380937576294, 479.5, 1535.833380937576294, 375.5, 1502.833380937576294, 375.5 ],
					"source" : [ "obj-229", 0 ]
				}

			}
, 			{
				"patchline" : 				{
					"destination" : [ "obj-228", 1 ],
					"midpoints" : [ 1511.416711091995239, 315.5, 1571.000036835670471, 315.5, 1571.000036835670471, 402.5, 1408.416711091995239, 402.5 ],
					"source" : [ "obj-230", 1 ]
				}

			}
, 			{
				"patchline" : 				{
					"destination" : [ "obj-228", 0 ],
					"midpoints" : [ 1274.416711091995239, 315.5, 1571.666711926460266, 315.5, 1571.666711926460266, 402.5, 1396.416711091995239, 402.5 ],
					"order" : 0,
					"source" : [ "obj-230", 0 ]
				}

			}
, 			{
				"patchline" : 				{
					"destination" : [ "obj-229", 0 ],
					"midpoints" : [ 1274.416711091995239, 101.696737736463547, 1249.916711091995239, 101.696737736463547, 1249.916711091995239, 218.696737736463547, 1274.416711091995239, 218.696737736463547 ],
					"order" : 1,
					"source" : [ "obj-230", 0 ]
				}

			}
, 			{
				"patchline" : 				{
					"destination" : [ "obj-235", 0 ],
					"source" : [ "obj-232", 0 ]
				}

			}
, 			{
				"patchline" : 				{
					"destination" : [ "obj-232", 0 ],
					"source" : [ "obj-233", 0 ]
				}

			}
, 			{
				"patchline" : 				{
					"destination" : [ "obj-26", 0 ],
					"midpoints" : [ 396.5, 678.0, 372.0, 678.0, 372.0, 795.0, 396.5, 795.0 ],
					"order" : 1,
					"source" : [ "obj-24", 0 ]
				}

			}
, 			{
				"patchline" : 				{
					"destination" : [ "obj-27", 1 ],
					"midpoints" : [ 633.5, 678.0, 654.0, 678.0, 654.0, 765.0, 530.5, 765.0 ],
					"source" : [ "obj-24", 1 ]
				}

			}
, 			{
				"patchline" : 				{
					"destination" : [ "obj-27", 0 ],
					"midpoints" : [ 396.5, 678.0, 372.0, 678.0, 372.0, 765.0, 518.5, 765.0 ],
					"order" : 0,
					"source" : [ "obj-24", 0 ]
				}

			}
, 			{
				"patchline" : 				{
					"destination" : [ "obj-45", 0 ],
					"source" : [ "obj-25", 0 ]
				}

			}
, 			{
				"patchline" : 				{
					"destination" : [ "obj-15", 1 ],
					"midpoints" : [ 396.5, 842.0, 257.5, 842.0, 257.5, 738.0, 224.5, 738.0 ],
					"source" : [ "obj-26", 0 ]
				}

			}
, 			{
				"patchline" : 				{
					"destination" : [ "obj-29", 0 ],
					"source" : [ "obj-27", 0 ]
				}

			}
, 			{
				"patchline" : 				{
					"destination" : [ "obj-20", 0 ],
					"source" : [ "obj-28", 0 ]
				}

			}
, 			{
				"patchline" : 				{
					"destination" : [ "obj-15", 1 ],
					"midpoints" : [ 518.5, 842.0, 257.5, 842.0, 257.5, 738.0, 224.5, 738.0 ],
					"source" : [ "obj-29", 0 ]
				}

			}
, 			{
				"patchline" : 				{
					"destination" : [ "obj-15", 0 ],
					"midpoints" : [ 176.5, 735.0, 56.5, 735.0 ],
					"source" : [ "obj-30", 0 ]
				}

			}
, 			{
				"patchline" : 				{
					"destination" : [ "obj-45", 0 ],
					"source" : [ "obj-31", 0 ]
				}

			}
, 			{
				"patchline" : 				{
					"destination" : [ "obj-45", 0 ],
					"source" : [ "obj-34", 0 ]
				}

			}
, 			{
				"patchline" : 				{
					"destination" : [ "obj-45", 0 ],
					"source" : [ "obj-35", 0 ]
				}

			}
, 			{
				"patchline" : 				{
					"destination" : [ "obj-45", 0 ],
					"source" : [ "obj-37", 0 ]
				}

			}
, 			{
				"patchline" : 				{
					"destination" : [ "obj-28", 0 ],
					"source" : [ "obj-39", 0 ]
				}

			}
, 			{
				"patchline" : 				{
					"destination" : [ "obj-39", 1 ],
					"source" : [ "obj-40", 0 ]
				}

			}
, 			{
				"patchline" : 				{
					"destination" : [ "obj-39", 0 ],
					"source" : [ "obj-41", 0 ]
				}

			}
, 			{
				"patchline" : 				{
					"destination" : [ "obj-46", 0 ],
					"source" : [ "obj-45", 0 ]
				}

			}
, 			{
				"patchline" : 				{
					"destination" : [ "obj-55", 0 ],
					"source" : [ "obj-46", 0 ]
				}

			}
, 			{
				"patchline" : 				{
					"destination" : [ "obj-2", 0 ],
					"source" : [ "obj-48", 0 ]
				}

			}
, 			{
				"patchline" : 				{
					"destination" : [ "obj-2", 1 ],
					"source" : [ "obj-5", 0 ]
				}

			}
, 			{
				"patchline" : 				{
					"destination" : [ "obj-2", 0 ],
					"source" : [ "obj-50", 0 ]
				}

			}
, 			{
				"patchline" : 				{
					"destination" : [ "obj-72", 0 ],
					"midpoints" : [ 359.666809000000001, 389.839660999999978, 196.5, 389.839660999999978 ],
					"source" : [ "obj-52", 0 ]
				}

			}
, 			{
				"patchline" : 				{
					"destination" : [ "obj-72", 1 ],
					"midpoints" : [ 414.389098999999987, 389.839660999999978, 275.25, 389.839660999999978 ],
					"source" : [ "obj-53", 0 ]
				}

			}
, 			{
				"patchline" : 				{
					"destination" : [ "obj-17", 0 ],
					"midpoints" : [ 1625.416691184043884, 590.000003099441528, 561.0, 590.000003099441528, 561.0, 567.0, 56.5, 567.0 ],
					"order" : 1,
					"source" : [ "obj-55", 0 ]
				}

			}
, 			{
				"patchline" : 				{
					"destination" : [ "obj-56", 1 ],
					"midpoints" : [ 1714.416691184043884, 507.0, 1645.416691184043884, 507.0 ],
					"source" : [ "obj-55", 1 ]
				}

			}
, 			{
				"patchline" : 				{
					"destination" : [ "obj-56", 0 ],
					"order" : 0,
					"source" : [ "obj-55", 0 ]
				}

			}
, 			{
				"patchline" : 				{
					"destination" : [ "obj-2", 0 ],
					"source" : [ "obj-58", 0 ]
				}

			}
, 			{
				"patchline" : 				{
					"destination" : [ "obj-60", 0 ],
					"source" : [ "obj-59", 0 ]
				}

			}
, 			{
				"patchline" : 				{
					"destination" : [ "obj-45", 0 ],
					"source" : [ "obj-6", 0 ]
				}

			}
, 			{
				"patchline" : 				{
					"destination" : [ "obj-63", 0 ],
					"source" : [ "obj-60", 0 ]
				}

			}
, 			{
				"patchline" : 				{
					"destination" : [ "obj-2", 0 ],
					"source" : [ "obj-61", 0 ]
				}

			}
, 			{
				"patchline" : 				{
					"destination" : [ "obj-60", 1 ],
					"source" : [ "obj-62", 0 ]
				}

			}
, 			{
				"patchline" : 				{
					"destination" : [ "obj-64", 0 ],
					"source" : [ "obj-63", 0 ]
				}

			}
, 			{
				"patchline" : 				{
					"destination" : [ "obj-66", 0 ],
					"source" : [ "obj-63", 1 ]
				}

			}
, 			{
				"patchline" : 				{
					"destination" : [ "obj-71", 0 ],
					"source" : [ "obj-64", 0 ]
				}

			}
, 			{
				"patchline" : 				{
					"destination" : [ "obj-59", 0 ],
					"midpoints" : [ 875.75, 826.333355307579041, 784.5, 826.333355307579041, 784.5, 655.333355307579041, 807.25, 655.333355307579041 ],
					"order" : 1,
					"source" : [ "obj-66", 0 ]
				}

			}
, 			{
				"patchline" : 				{
					"destination" : [ "obj-63", 2 ],
					"midpoints" : [ 875.75, 826.333355307579041, 910.5, 826.333355307579041, 910.5, 742.333355307579041, 837.25, 742.333355307579041 ],
					"order" : 0,
					"source" : [ "obj-66", 0 ]
				}

			}
, 			{
				"patchline" : 				{
					"destination" : [ "obj-2", 0 ],
					"source" : [ "obj-67", 0 ]
				}

			}
, 			{
				"patchline" : 				{
					"destination" : [ "obj-2", 0 ],
					"source" : [ "obj-69", 0 ]
				}

			}
, 			{
				"patchline" : 				{
					"destination" : [ "obj-2", 0 ],
					"source" : [ "obj-7", 0 ]
				}

			}
, 			{
				"patchline" : 				{
					"destination" : [ "obj-76", 0 ],
					"source" : [ "obj-71", 0 ]
				}

			}
, 			{
				"patchline" : 				{
					"destination" : [ "obj-77", 0 ],
					"source" : [ "obj-76", 0 ]
				}

			}
, 			{
				"patchline" : 				{
					"destination" : [ "obj-80", 0 ],
					"source" : [ "obj-77", 0 ]
				}

			}
, 			{
				"patchline" : 				{
					"destination" : [ "obj-80", 1 ],
					"source" : [ "obj-79", 0 ]
				}

			}
, 			{
				"patchline" : 				{
					"destination" : [ "obj-45", 0 ],
					"source" : [ "obj-8", 0 ]
				}

			}
, 			{
				"patchline" : 				{
					"destination" : [ "obj-81", 0 ],
					"source" : [ "obj-80", 0 ]
				}

			}
, 			{
				"patchline" : 				{
					"destination" : [ "obj-83", 0 ],
					"source" : [ "obj-81", 0 ]
				}

			}
, 			{
				"patchline" : 				{
					"destination" : [ "obj-17", 0 ],
					"midpoints" : [ 807.25, 996.0, 33.0, 996.0, 33.0, 576.0, 56.5, 576.0 ],
					"order" : 1,
					"source" : [ "obj-83", 0 ]
				}

			}
, 			{
				"patchline" : 				{
					"destination" : [ "obj-85", 1 ],
					"source" : [ "obj-83", 1 ]
				}

			}
, 			{
				"patchline" : 				{
					"destination" : [ "obj-85", 0 ],
					"order" : 0,
					"source" : [ "obj-83", 0 ]
				}

			}
, 			{
				"patchline" : 				{
					"destination" : [ "obj-80", 1 ],
					"source" : [ "obj-87", 0 ]
				}

			}
, 			{
				"patchline" : 				{
					"destination" : [ "obj-80", 1 ],
					"source" : [ "obj-88", 0 ]
				}

			}
, 			{
				"patchline" : 				{
					"destination" : [ "obj-2", 0 ],
					"source" : [ "obj-9", 0 ]
				}

			}
, 			{
				"patchline" : 				{
					"destination" : [ "obj-103", 0 ],
					"source" : [ "obj-95", 0 ]
				}

			}
, 			{
				"patchline" : 				{
					"destination" : [ "obj-95", 0 ],
					"source" : [ "obj-97", 0 ]
				}

			}
, 			{
				"patchline" : 				{
					"destination" : [ "obj-96", 0 ],
					"source" : [ "obj-98", 0 ]
				}

			}
, 			{
				"patchline" : 				{
					"destination" : [ "obj-90", 0 ],
					"order" : 1,
					"source" : [ "obj-99", 0 ]
				}

			}
, 			{
				"patchline" : 				{
					"destination" : [ "obj-91", 0 ],
					"source" : [ "obj-99", 2 ]
				}

			}
, 			{
				"patchline" : 				{
					"destination" : [ "obj-94", 0 ],
					"source" : [ "obj-99", 1 ]
				}

			}
, 			{
				"patchline" : 				{
					"destination" : [ "obj-98", 0 ],
					"order" : 0,
					"source" : [ "obj-99", 0 ]
				}

			}
 ],
		"dependency_cache" : [ 			{
				"name" : "karmapoly.maxpat",
				"bootpath" : "~/Desktop/AI SOUND INTERACTIVE SYSTEM/patchers",
				"patcherrelativepath" : ".",
				"type" : "JSON",
				"implicit" : 1
			}
, 			{
				"name" : "Herachive - I am shangavatar - demo.wav",
				"bootpath" : "~/Desktop/Her Archive/Music",
				"patcherrelativepath" : "../../Her Archive/Music",
				"type" : "WAVE",
				"implicit" : 1
			}
, 			{
				"name" : "Ai-voice.wav",
				"bootpath" : "~/Desktop/Her Archive",
				"patcherrelativepath" : "../../Her Archive",
				"type" : "WAVE",
				"implicit" : 1
			}
, 			{
				"name" : "singingsound.wav",
				"bootpath" : "~/Desktop",
				"patcherrelativepath" : "../..",
				"type" : "WAVE",
				"implicit" : 1
			}
, 			{
				"name" : "karma~.mxo",
				"type" : "iLaX"
			}
 ],
		"autosave" : 0,
		"styles" : [ 			{
				"name" : "AudioStatus_Menu",
				"default" : 				{
					"bgfillcolor" : 					{
						"type" : "color",
						"color" : [ 0.294118, 0.313726, 0.337255, 1 ],
						"color1" : [ 0.454902, 0.462745, 0.482353, 0.0 ],
						"color2" : [ 0.290196, 0.309804, 0.301961, 1.0 ],
						"angle" : 270.0,
						"proportion" : 0.39,
						"autogradient" : 0
					}

				}
,
				"parentstyle" : "",
				"multi" : 0
			}
, 			{
				"name" : "ksliderWhite",
				"default" : 				{
					"color" : [ 1.0, 1.0, 1.0, 1.0 ]
				}
,
				"parentstyle" : "",
				"multi" : 0
			}
, 			{
				"name" : "newobjBlue-1",
				"default" : 				{
					"accentcolor" : [ 0.317647, 0.654902, 0.976471, 1.0 ]
				}
,
				"parentstyle" : "",
				"multi" : 0
			}
, 			{
				"name" : "newobjBrown-1",
				"default" : 				{
					"accentcolor" : [ 0.654902, 0.572549, 0.376471, 1.0 ]
				}
,
				"parentstyle" : "",
				"multi" : 0
			}
, 			{
				"name" : "newobjCyan-1",
				"default" : 				{
					"accentcolor" : [ 0.029546, 0.773327, 0.821113, 1.0 ]
				}
,
				"parentstyle" : "",
				"multi" : 0
			}
, 			{
				"name" : "newobjGreen-1",
				"default" : 				{
					"accentcolor" : [ 0.0, 0.533333, 0.168627, 1.0 ]
				}
,
				"parentstyle" : "",
				"multi" : 0
			}
, 			{
				"name" : "newobjYellow-1",
				"default" : 				{
					"accentcolor" : [ 0.82517, 0.78181, 0.059545, 1.0 ],
					"fontsize" : [ 12.059008 ]
				}
,
				"parentstyle" : "",
				"multi" : 0
			}
, 			{
				"name" : "numberGold-1",
				"default" : 				{
					"accentcolor" : [ 0.764706, 0.592157, 0.101961, 1.0 ]
				}
,
				"parentstyle" : "",
				"multi" : 0
			}
, 			{
				"name" : "rsliderGold",
				"default" : 				{
					"bgcolor" : [ 0.764706, 0.592157, 0.101961, 1.0 ],
					"color" : [ 0.646639, 0.821777, 0.854593, 1.0 ]
				}
,
				"parentstyle" : "",
				"multi" : 0
			}
 ]
	}

}
